<svg version="1.1" xmlns="http://www.w3.org/2000/svg" viewBox="0 0 1464.9999999999989 2729.166666666667" width="1464.9999999999989" height="2729.166666666667" filter="invert(93%) hue-rotate(180deg)">
  <!-- svg-source:excalidraw -->
  
  <defs>
    <style class="style-fonts">
      @font-face {
        font-family: "Virgil";
        src: url("https://excalidraw.com/Virgil.woff2");
      }
      @font-face {
        font-family: "Cascadia";
        src: url("https://excalidraw.com/Cascadia.woff2");
      }
      @font-face {
        font-family: "Assistant";
        src: url("https://excalidraw.com/Assistant-Regular.woff2");
      }
    </style>
    
  </defs>
  <rect x="0" y="0" width="1464.9999999999989" height="2729.166666666667" fill="#ffffff"></rect><g stroke-linecap="round" transform="translate(497.49999999999886 10) rotate(0 478.75 1352.9017857142853)"><path d="M32 0 C282.39 4.34, 530.52 6.12, 925.5 0 C947.69 2.2, 959.24 14.13, 957.5 32 C970.2 957.23, 971.81 1884.71, 957.5 2673.8 C959.83 2696.93, 944.61 2705.72, 925.5 2705.8 C704.92 2703.89, 482.46 2702.31, 32 2705.8 C8.46 2705.02, -0.99 2693.7, 0 2673.8 C-1.57 1644.57, -1.48 618.49, 0 32 C-0.9 10.78, 11.39 1.36, 32 0" stroke="none" stroke-width="0" fill="#ffffff"></path><path d="M32 0 C303.89 0.31, 576.74 1.29, 925.5 0 M32 0 C337.23 -1.1, 643 -1.39, 925.5 0 M925.5 0 C945.14 -1.71, 956.91 11.29, 957.5 32 M925.5 0 C946.98 -0.45, 956.97 9.29, 957.5 32 M957.5 32 C956.52 904.03, 956.15 1776.76, 957.5 2673.8 M957.5 32 C959.68 1031.14, 959.68 2030.21, 957.5 2673.8 M957.5 2673.8 C955.76 2695.15, 948.5 2704.1, 925.5 2705.8 M957.5 2673.8 C957.77 2694.97, 948.85 2706.02, 925.5 2705.8 M925.5 2705.8 C697.08 2705.95, 470.93 2706.02, 32 2705.8 M925.5 2705.8 C592.12 2703.15, 258.35 2703.47, 32 2705.8 M32 2705.8 C10.7 2704.02, -0.11 2696.38, 0 2673.8 M32 2705.8 C12.5 2704.94, 0.84 2696.95, 0 2673.8 M0 2673.8 C-6.74 1734.54, -7.61 794.29, 0 32 M0 2673.8 C-2.97 1932.33, -2.97 1190.86, 0 32 M0 32 C1.89 10.59, 12.12 0.77, 32 0 M0 32 C0.47 11.41, 9.71 -1.44, 32 0" stroke="#1e1e1e" stroke-width="2" fill="none"></path></g><g stroke-linecap="round" transform="translate(517.6914717844422 36.010167768174824) rotate(0 455.743549822064 177.4864323843416)"><path d="M32 0 C360.38 3.89, 688.56 3.51, 879.49 0 M32 0 C315.17 1.74, 598.34 2.22, 879.49 0 M879.49 0 C899.21 -1.19, 909.83 10.78, 911.49 32 M879.49 0 C902.1 0.27, 912.45 8.79, 911.49 32 M911.49 32 C908.64 142.32, 909.23 252.37, 911.49 322.97 M911.49 32 C912.78 133.18, 912.42 235.19, 911.49 322.97 M911.49 322.97 C910.71 345.04, 902.12 354.56, 879.49 354.97 M911.49 322.97 C910.15 343.93, 900.1 353.2, 879.49 354.97 M879.49 354.97 C642.4 355.97, 405.95 356.02, 32 354.97 M879.49 354.97 C664.87 352.56, 450.46 352.85, 32 354.97 M32 354.97 C12.62 354.38, 0.24 343.92, 0 322.97 M32 354.97 C9.91 354.96, 1.47 344.52, 0 322.97 M0 322.97 C1.12 258.12, 0.52 196.91, 0 32 M0 322.97 C-2.54 251.06, -1.77 179.16, 0 32 M0 32 C0.24 8.77, 11.8 -0.43, 32 0 M0 32 C-1.58 12.91, 10.94 1.18, 32 0" stroke="#1e1e1e" stroke-width="2" fill="none"></path></g><g stroke-linecap="round" transform="translate(534.5949415353319 49.01283680732081) rotate(0 438.1899466192171 31.206405693950174)"><path d="M15.6 0 C189.1 -2.56, 362.6 -3.46, 860.78 0 M15.6 0 C217.43 3.06, 418.33 2.69, 860.78 0 M860.78 0 C869.52 0.12, 877.49 5.43, 876.38 15.6 M860.78 0 C872.14 -1.88, 878.22 3.75, 876.38 15.6 M876.38 15.6 C874.89 22.51, 877.07 31.85, 876.38 46.81 M876.38 15.6 C876.95 23.3, 876.24 32.31, 876.38 46.81 M876.38 46.81 C877.68 56.8, 870.02 62.08, 860.78 62.41 M876.38 46.81 C875.66 55.44, 870.71 60.38, 860.78 62.41 M860.78 62.41 C571.06 60.03, 280.41 59.69, 15.6 62.41 M860.78 62.41 C664.87 61.64, 468.84 61.34, 15.6 62.41 M15.6 62.41 C5.44 62.03, -0.65 57.2, 0 46.81 M15.6 62.41 C6.68 62.63, -1.87 55.49, 0 46.81 M0 46.81 C-1.38 40.82, -0.94 33.48, 0 15.6 M0 46.81 C0.45 38.01, 0.38 27.5, 0 15.6 M0 15.6 C1.14 4.78, 3.83 1.95, 15.6 0 M0 15.6 C0.27 6.38, 4.06 -1.11, 15.6 0" stroke="#1e1e1e" stroke-width="2" fill="none"></path></g><g stroke-linecap="round"><g transform="translate(539.7960091509904 84.6787299796681) rotate(0 -70.21441281138789 10.772925299947346)"><path d="M0.44 0.41 C-23.29 3.84, -117.94 17.46, -141.34 20.81 M-0.79 -0.42 C-24.23 3.13, -115.82 18.34, -139.11 21.96" stroke="#1e1e1e" stroke-width="2" fill="none"></path></g><g transform="translate(539.7960091509904 84.6787299796681) rotate(0 -70.21441281138789 10.772925299947346)"><path d="M-117.28 9.78 C-124.97 13.02, -135.27 19.97, -139.11 21.96 M-117.28 9.78 C-122.65 11.86, -127.33 15.11, -139.11 21.96" stroke="#1e1e1e" stroke-width="2" fill="none"></path></g><g transform="translate(539.7960091509904 84.6787299796681) rotate(0 -70.21441281138789 10.772925299947346)"><path d="M-114.55 26.66 C-123.32 23.42, -134.67 23.88, -139.11 21.96 M-114.55 26.66 C-120.64 25.15, -125.9 24.8, -139.11 21.96" stroke="#1e1e1e" stroke-width="2" fill="none"></path></g></g><mask></mask><g stroke-linecap="round" transform="translate(333.0535714285704 97.12271225216068) rotate(0 44.859208185053376 22.754670818505332)"><path d="M11.38 0 C32.69 1.26, 54.73 2.01, 78.34 0 M11.38 0 C32.95 0.46, 56.73 0.51, 78.34 0 M78.34 0 C86.76 -1.63, 91.32 2.53, 89.72 11.38 M78.34 0 C84.78 -2.26, 89.41 2.43, 89.72 11.38 M89.72 11.38 C89.07 18.8, 88.25 23.64, 89.72 34.13 M89.72 11.38 C90.28 16.91, 89.05 22.7, 89.72 34.13 M89.72 34.13 C89.09 40.17, 85.52 43.74, 78.34 45.51 M89.72 34.13 C90.71 41.21, 84.58 46.31, 78.34 45.51 M78.34 45.51 C60.35 45, 44.51 46.14, 11.38 45.51 M78.34 45.51 C55.34 45.12, 31.78 45.31, 11.38 45.51 M11.38 45.51 C5.07 45.7, -1.63 40.22, 0 34.13 M11.38 45.51 C2.45 44.72, -1.91 40, 0 34.13 M0 34.13 C0 23.86, 0.49 17.31, 0 11.38 M0 34.13 C0.54 26.23, -0.72 19.72, 0 11.38 M0 11.38 C0.23 4.82, 2.8 -0.97, 11.38 0 M0 11.38 C1.21 1.61, 2.8 -0.33, 11.38 0" stroke="#1e1e1e" stroke-width="2" fill="none"></path></g><g transform="translate(356.3717868768074 103.62404677173363) rotate(0 21.540992736816406 16.253336298932382)"><text x="21.540992736816406" y="0" font-family="Virgil, Segoe UI Emoji" font-size="26.005338078291814px" fill="#1e1e1e" text-anchor="middle" style="white-space: pre;" direction="ltr" dominant-baseline="text-before-edge">nav</text></g><g stroke-linecap="round" transform="translate(552.7986781901362 62.01550584646668) rotate(0 53.96107651245552 22.754670818505332)"><path d="M11.38 0 C40.81 -2.25, 67.67 -2.29, 96.54 0 M11.38 0 C37.84 -0.92, 64.27 -0.73, 96.54 0 M96.54 0 C103.13 -1.97, 107.66 2.61, 107.92 11.38 M96.54 0 C103.1 1.14, 108.66 2.91, 107.92 11.38 M107.92 11.38 C106.79 19.26, 108.48 30, 107.92 34.13 M107.92 11.38 C107.48 16.96, 107.59 23.2, 107.92 34.13 M107.92 34.13 C108.78 41.27, 102.96 46.21, 96.54 45.51 M107.92 34.13 C106.73 40.64, 101.98 43.95, 96.54 45.51 M96.54 45.51 C71.4 48, 43.85 46.28, 11.38 45.51 M96.54 45.51 C73.27 45.6, 47.89 44.76, 11.38 45.51 M11.38 45.51 C2.63 44.82, -1.66 40.23, 0 34.13 M11.38 45.51 C5.58 44.3, 2.02 41.58, 0 34.13 M0 34.13 C0.72 29.45, -1.94 25.42, 0 11.38 M0 34.13 C0.27 28.3, -0.34 20.96, 0 11.38 M0 11.38 C1.06 1.9, 2.93 -0.29, 11.38 0 M0 11.38 C0.25 1.59, 2.64 -0.4, 11.38 0" stroke="#1e1e1e" stroke-width="2" fill="none"></path></g><g transform="translate(600.4937634916542 68.51684036603963) rotate(0 6.2659912109375 16.253336298932382)"><text x="6.2659912109375" y="0" font-family="Virgil, Segoe UI Emoji" font-size="26.005338078291814px" fill="#1e1e1e" text-anchor="middle" style="white-space: pre;" direction="ltr" dominant-baseline="text-before-edge">li</text></g><g stroke-linecap="round" transform="translate(675.0237671581078 56.81443823080838) rotate(0 91.66881672597867 19.504003558718864)"><path d="M9.75 0 C45.83 2.47, 81.91 2.19, 173.59 0 M9.75 0 C45.01 0.05, 81.13 0.44, 173.59 0 M173.59 0 C179.19 1, 183.98 2.49, 183.34 9.75 M173.59 0 C181.94 -1.82, 184.08 2.16, 183.34 9.75 M183.34 9.75 C183 13.71, 183.09 19.32, 183.34 29.26 M183.34 9.75 C183.72 13.88, 182.73 18.78, 183.34 29.26 M183.34 29.26 C182.31 34.82, 178.21 37.65, 173.59 39.01 M183.34 29.26 C183.47 35.11, 181.54 40.05, 173.59 39.01 M173.59 39.01 C108.04 38.55, 43.25 40.48, 9.75 39.01 M173.59 39.01 C122.31 37.43, 71.37 37.03, 9.75 39.01 M9.75 39.01 C4.81 37.96, 1.75 35.64, 0 29.26 M9.75 39.01 C1.33 39.43, 0.42 36.63, 0 29.26 M0 29.26 C-0.23 21.83, 2.09 17.31, 0 9.75 M0 29.26 C0.61 21.48, -0.32 15.41, 0 9.75 M0 9.75 C0.21 1.33, 2.25 -0.35, 9.75 0 M0 9.75 C1.78 3.83, 1.85 2.07, 9.75 0" stroke="#1e1e1e" stroke-width="2" fill="none"></path></g><g stroke-linecap="round" transform="translate(872.6643365531256 58.11470513472295) rotate(0 102.72108540925262 23.404804270462634)"><path d="M11.7 0 C51.48 -0.18, 89.17 0.58, 193.74 0 M11.7 0 C54.7 1.2, 97.51 2.29, 193.74 0 M193.74 0 C202.18 -0.76, 207.06 2.32, 205.44 11.7 M193.74 0 C202.28 -1.09, 204.55 4.74, 205.44 11.7 M205.44 11.7 C205.06 19.62, 203.85 28.37, 205.44 35.11 M205.44 11.7 C204.96 17, 205.03 21.14, 205.44 35.11 M205.44 35.11 C203.57 41.55, 201.66 46.24, 193.74 46.81 M205.44 35.11 C206.89 43.95, 203.79 46.12, 193.74 46.81 M193.74 46.81 C136.96 47.5, 80.38 44.59, 11.7 46.81 M193.74 46.81 C151.94 45.44, 112.59 45.66, 11.7 46.81 M11.7 46.81 C5.66 46.69, -1.67 43.28, 0 35.11 M11.7 46.81 C4.33 47.69, 0.28 40.72, 0 35.11 M0 35.11 C2 26.99, 1.08 17.41, 0 11.7 M0 35.11 C-0.55 29.07, -0.02 22.37, 0 11.7 M0 11.7 C-1 3.55, 5.44 0.5, 11.7 0 M0 11.7 C-1.4 5.97, 1.71 -0.91, 11.7 0" stroke="#1e1e1e" stroke-width="2" fill="none"></path></g><g stroke-linecap="round" transform="translate(1091.1091764107766 56.81443823080838) rotate(0 122.22508896797149 22.754670818505318)"><path d="M11.38 0 C88.82 0.58, 168 -1.66, 233.07 0 M11.38 0 C55.68 1.56, 101.04 0.8, 233.07 0 M233.07 0 C242.27 -1.58, 245.09 2.84, 244.45 11.38 M233.07 0 C239.76 0.84, 245.94 3.31, 244.45 11.38 M244.45 11.38 C242.87 16.47, 242.64 23.24, 244.45 34.13 M244.45 11.38 C243.8 17.23, 243.38 23.34, 244.45 34.13 M244.45 34.13 C244.57 41.15, 241.92 46.41, 233.07 45.51 M244.45 34.13 C246.7 41.03, 240.93 45.07, 233.07 45.51 M233.07 45.51 C173.98 45.33, 113.26 45.73, 11.38 45.51 M233.07 45.51 C174.89 43.63, 116.13 44.03, 11.38 45.51 M11.38 45.51 C2.12 45.88, 0.37 42.48, 0 34.13 M11.38 45.51 C4.07 43.32, 1.31 41.23, 0 34.13 M0 34.13 C0.8 27.88, -1.19 24.66, 0 11.38 M0 34.13 C0.21 28.5, -0.4 24.62, 0 11.38 M0 11.38 C1.54 4.3, 2.57 1.8, 11.38 0 M0 11.38 C-2.19 2.88, 4.81 -1.88, 11.38 0" stroke="#1e1e1e" stroke-width="2" fill="none"></path></g><g stroke-linecap="round"><g transform="translate(533.2946746314174 214.14673360447375) rotate(0 -47.45974199288253 26.655471530249116)"><path d="M0.96 -0.76 C-15.05 8.09, -79.51 43.24, -95.52 52.13 M0 1.46 C-15.65 10.5, -77.13 44.37, -93.12 53.05" stroke="#1e1e1e" stroke-width="2" fill="none"></path></g><g transform="translate(533.2946746314174 214.14673360447375) rotate(0 -47.45974199288253 26.655471530249116)"><path d="M-76.63 34.26 C-83.68 39.82, -90.02 46.97, -93.12 53.05 M-76.63 34.26 C-80.36 38.49, -83.85 42.6, -93.12 53.05" stroke="#1e1e1e" stroke-width="2" fill="none"></path></g><g transform="translate(533.2946746314174 214.14673360447375) rotate(0 -47.45974199288253 26.655471530249116)"><path d="M-68.41 49.26 C-78.15 49.75, -87.3 51.78, -93.12 53.05 M-68.41 49.26 C-74.06 49.91, -79.52 50.41, -93.12 53.05" stroke="#1e1e1e" stroke-width="2" fill="none"></path></g></g><mask></mask><g stroke-linecap="round" transform="translate(351.2573080833747 264.8571428571428) rotate(0 54.61120996441281 26.655471530249116)"><path d="M13.33 0 C42.72 0.14, 74.87 -0.48, 95.89 0 M13.33 0 C43.01 -0.48, 71.41 -0.16, 95.89 0 M95.89 0 C104 0.73, 110.52 4.03, 109.22 13.33 M95.89 0 C103.44 -0.38, 108.5 2.67, 109.22 13.33 M109.22 13.33 C108.54 19.61, 109.69 27.2, 109.22 39.98 M109.22 13.33 C109.03 19.8, 109.6 27.28, 109.22 39.98 M109.22 39.98 C111.18 48.27, 105.02 52.93, 95.89 53.31 M109.22 39.98 C108.47 48.86, 106.25 53.53, 95.89 53.31 M95.89 53.31 C77.15 51.16, 58.3 54.39, 13.33 53.31 M95.89 53.31 C74.61 53.45, 55.19 53.64, 13.33 53.31 M13.33 53.31 C4.69 51.41, 1.14 48.44, 0 39.98 M13.33 53.31 C2.86 55.56, 0.27 50.05, 0 39.98 M0 39.98 C-1.77 32.45, -0.16 26.86, 0 13.33 M0 39.98 C0.91 34.8, -0.48 30, 0 13.33 M0 13.33 C-1.91 3.65, 5.33 -1.64, 13.33 0 M0 13.33 C-2.14 4.78, 4.39 0.99, 13.33 0" stroke="#1e1e1e" stroke-width="2" fill="none"></path></g><g transform="translate(363.5665313534515 275.2592780884595) rotate(0 42.30198669433594 16.253336298932368)"><text x="42.30198669433594" y="0" font-family="Virgil, Segoe UI Emoji" font-size="26.005338078291814px" fill="#1e1e1e" text-anchor="middle" style="white-space: pre;" direction="ltr" dominant-baseline="text-before-edge">header</text></g><g stroke-linecap="round" transform="translate(868.7635358413818 130.92965175394) rotate(0 45.50934163701072 40.958407473309606)"><path d="M20.48 0 C35.83 0.86, 48.42 1.84, 70.54 0 M20.48 0 C31.14 0.6, 43.23 0.03, 70.54 0 M70.54 0 C83.03 -0.33, 90.39 5.28, 91.02 20.48 M70.54 0 C83.72 -2.03, 92.01 6.32, 91.02 20.48 M91.02 20.48 C90.23 28.5, 89.8 40.39, 91.02 61.44 M91.02 20.48 C92.25 31.31, 91.4 42.55, 91.02 61.44 M91.02 61.44 C90.36 75.08, 85.47 82.11, 70.54 81.92 M91.02 61.44 C89.15 73.37, 82.85 81.12, 70.54 81.92 M70.54 81.92 C58.64 84.06, 48.72 80.63, 20.48 81.92 M70.54 81.92 C54.71 81.16, 39.22 81.89, 20.48 81.92 M20.48 81.92 C5.45 83.87, 0.23 76.12, 0 61.44 M20.48 81.92 C5.68 80.8, 1.21 72.91, 0 61.44 M0 61.44 C-1.86 49.91, -0.29 41.93, 0 20.48 M0 61.44 C-0.7 47.72, 0.69 33.98, 0 20.48 M0 20.48 C-1.86 7.12, 6.78 0.86, 20.48 0 M0 20.48 C-0.96 7.02, 7.78 -2.22, 20.48 0" stroke="#1e1e1e" stroke-width="2" fill="none"></path></g><g transform="translate(904.3278854129628 155.63472292831722) rotate(0 9.944992065429688 16.253336298932382)"><text x="9.944992065429688" y="0" font-family="Virgil, Segoe UI Emoji" font-size="26.005338078291814px" fill="#1e1e1e" text-anchor="middle" style="white-space: pre;" direction="ltr" dominant-baseline="text-before-edge">h1</text></g><g stroke-linecap="round" transform="translate(548.8978774783925 336.37182257244535) rotate(0 427.1376779359431 24.054937722419936)"><path d="M12.03 0 C286.93 -2.42, 562.71 -2.99, 842.25 0 M12.03 0 C291.31 0.62, 570.93 0.38, 842.25 0 M842.25 0 C849.86 -1.77, 855.14 3.57, 854.28 12.03 M842.25 0 C848.92 0.8, 853.09 2.93, 854.28 12.03 M854.28 12.03 C853.55 18.25, 855.02 23.91, 854.28 36.08 M854.28 12.03 C853.98 18.52, 854.94 25.12, 854.28 36.08 M854.28 36.08 C852.65 42.6, 849.1 47.42, 842.25 48.11 M854.28 36.08 C852.36 42.39, 852.06 46.91, 842.25 48.11 M842.25 48.11 C520.49 45.48, 198.74 45.43, 12.03 48.11 M842.25 48.11 C671.79 47.79, 501.94 47.61, 12.03 48.11 M12.03 48.11 C3.01 47.14, 1.06 42.21, 0 36.08 M12.03 48.11 C3.02 47.78, 0.25 41.89, 0 36.08 M0 36.08 C0.55 28.85, 1.84 22.15, 0 12.03 M0 36.08 C-1.04 29.97, -0.13 23.99, 0 12.03 M0 12.03 C-0.84 4.18, 4.84 -1.93, 12.03 0 M0 12.03 C2.15 3.44, 4.68 -2.24, 12.03 0" stroke="#1e1e1e" stroke-width="2" fill="none"></path></g><g stroke-linecap="round" transform="translate(568.4018810371114 337.67208947635993) rotate(0 37.057606761565864 22.754670818505332)"><path d="M11.38 0 C29.98 -0.94, 51.21 1.13, 62.74 0 M11.38 0 C25.41 -0.69, 39.85 -0.8, 62.74 0 M62.74 0 C71.19 -0.44, 72.95 4.49, 74.12 11.38 M62.74 0 C69.14 -1.07, 71.96 2.23, 74.12 11.38 M74.12 11.38 C74.96 20.29, 73.46 25.53, 74.12 34.13 M74.12 11.38 C74.68 17.86, 73.23 23.41, 74.12 34.13 M74.12 34.13 C72.95 41.03, 68.66 44.02, 62.74 45.51 M74.12 34.13 C75.9 40.51, 72.34 45.37, 62.74 45.51 M62.74 45.51 C52.39 45.85, 38.62 46.74, 11.38 45.51 M62.74 45.51 C48.54 46.52, 33.61 45.53, 11.38 45.51 M11.38 45.51 C4.85 43.62, -0.86 41.43, 0 34.13 M11.38 45.51 C4.04 43.3, -1.15 41.32, 0 34.13 M0 34.13 C1.74 23.64, -0.85 17.86, 0 11.38 M0 34.13 C0.19 29.6, -0.21 24.29, 0 11.38 M0 11.38 C0.83 1.86, 5.67 -0.49, 11.38 0 M0 11.38 C0.67 1.55, 4.02 1.45, 11.38 0" stroke="#1e1e1e" stroke-width="2" fill="none"></path></g><g transform="translate(599.0504912166459 344.1734239959329) rotate(0 6.40899658203125 16.253336298932368)"><text x="6.40899658203125" y="0" font-family="Virgil, Segoe UI Emoji" font-size="26.005338078291814px" fill="#1e1e1e" text-anchor="middle" style="white-space: pre;" direction="ltr" dominant-baseline="text-before-edge">p</text></g><g stroke-linecap="round" transform="translate(1270.5460091509901 338.9723563802746) rotate(0 40.95840747330965 22.754670818505332)"><path d="M11.38 0 C26.4 -1.55, 41.93 -1.01, 70.54 0 M11.38 0 C24.99 0.3, 37.16 0.87, 70.54 0 M70.54 0 C77.09 -0.93, 80.04 2.43, 81.92 11.38 M70.54 0 C78.26 -0.65, 83.37 4.83, 81.92 11.38 M81.92 11.38 C81.47 19.77, 81.84 30.76, 81.92 34.13 M81.92 11.38 C81.15 18.07, 80.9 24.71, 81.92 34.13 M81.92 34.13 C83.47 40.67, 79.88 45.39, 70.54 45.51 M81.92 34.13 C79.99 42.14, 78.55 46.39, 70.54 45.51 M70.54 45.51 C51.64 44.47, 35.55 46.08, 11.38 45.51 M70.54 45.51 C50.28 44.28, 28.54 45.08, 11.38 45.51 M11.38 45.51 C4.01 43.59, -1 41.37, 0 34.13 M11.38 45.51 C5.57 46.09, -1.4 43.78, 0 34.13 M0 34.13 C-1.55 27.61, 0.39 24.77, 0 11.38 M0 34.13 C0.51 25.36, 1.03 18.28, 0 11.38 M0 11.38 C0.58 1.84, 3.99 1.26, 11.38 0 M0 11.38 C-1.74 1.68, 2.97 0.77, 11.38 0" stroke="#1e1e1e" stroke-width="2" fill="none"></path></g><g transform="translate(1305.0954200422684 345.4736908998476) rotate(0 6.40899658203125 16.253336298932368)"><text x="6.40899658203125" y="0" font-family="Virgil, Segoe UI Emoji" font-size="26.005338078291814px" fill="#1e1e1e" text-anchor="middle" style="white-space: pre;" direction="ltr" dominant-baseline="text-before-edge">p</text></g><g stroke-linecap="round" transform="translate(678.9245678698516 405.28596847991867) rotate(0 323.7664590747332 295.160587188612)"><path d="M32 0 C172.49 0.57, 313.51 1.07, 615.53 0 M32 0 C193.95 -1, 355.94 -1.09, 615.53 0 M615.53 0 C636.98 -0.57, 648.79 11.57, 647.53 32 M615.53 0 C639.11 -0.68, 647.81 10.23, 647.53 32 M647.53 32 C647.6 172.04, 646.93 312.91, 647.53 558.32 M647.53 32 C646.09 171.51, 646.13 311.42, 647.53 558.32 M647.53 558.32 C645.86 580.03, 637.24 591.08, 615.53 590.32 M647.53 558.32 C647.81 577.47, 638.17 589.83, 615.53 590.32 M615.53 590.32 C481 590.2, 345.26 591.02, 32 590.32 M615.53 590.32 C495.78 589.6, 375.74 589.92, 32 590.32 M32 590.32 C12.21 590.83, -1.22 581.45, 0 558.32 M32 590.32 C8.48 589.41, 1.02 577.77, 0 558.32 M0 558.32 C0.03 449.1, -0.24 340.87, 0 32 M0 558.32 C-1.86 450.93, -1.93 344.56, 0 32 M0 32 C-1.51 8.83, 9.95 0.67, 32 0 M0 32 C-2.23 9.55, 12.38 -0.86, 32 0" stroke="#1e1e1e" stroke-width="2" fill="none"></path></g><g stroke-linecap="round" transform="translate(864.8627351296379 420.8891713268938) rotate(0 83.21708185053376 22.754670818505332)"><path d="M11.38 0 C48.22 1.16, 88.16 -0.87, 155.06 0 M11.38 0 C58.57 -0.01, 107.7 0.39, 155.06 0 M155.06 0 C163.9 0.9, 168.39 3.2, 166.43 11.38 M155.06 0 C162.92 -0.44, 165.68 3.78, 166.43 11.38 M166.43 11.38 C164.96 18.5, 165.76 26.28, 166.43 34.13 M166.43 11.38 C167.49 16.45, 165.77 21.82, 166.43 34.13 M166.43 34.13 C166.8 42.48, 162.89 43.61, 155.06 45.51 M166.43 34.13 C167.74 41.23, 161.06 47.76, 155.06 45.51 M155.06 45.51 C109.3 45.85, 63.59 43.93, 11.38 45.51 M155.06 45.51 C113.52 43.96, 73.76 44.38, 11.38 45.51 M11.38 45.51 C2.57 47.31, -1.91 40.92, 0 34.13 M11.38 45.51 C4.81 43.63, -2.14 42.06, 0 34.13 M0 34.13 C0.07 28.19, -2.03 22.45, 0 11.38 M0 34.13 C0.03 28.5, -0.82 20.68, 0 11.38 M0 11.38 C-0.72 4.46, 1.85 -0.97, 11.38 0 M0 11.38 C1.72 2.93, 4.96 -1.66, 11.38 0" stroke="#1e1e1e" stroke-width="2" fill="none"></path></g><g transform="translate(932.4018232057576 427.3905058464668) rotate(0 15.677993774414062 16.253336298932368)"><text x="15.677993774414062" y="0" font-family="Virgil, Segoe UI Emoji" font-size="26.005338078291814px" fill="#1e1e1e" text-anchor="middle" style="white-space: pre;" direction="ltr" dominant-baseline="text-before-edge">h2</text></g><g stroke-linecap="round" transform="translate(790.4224548805278 721.2508261311642) rotate(0 202.19150355871886 73.46508007117438)"><path d="M32 0 C149.26 0.64, 264.96 0.08, 372.38 0 M32 0 C111.42 0.94, 190.65 0.44, 372.38 0 M372.38 0 C393.95 -0.38, 403.73 10.66, 404.38 32 M372.38 0 C395.19 0.22, 402.51 8.94, 404.38 32 M404.38 32 C402.61 53.6, 403.05 73.85, 404.38 114.93 M404.38 32 C403.87 56.77, 403.81 79.83, 404.38 114.93 M404.38 114.93 C405.52 135.84, 392.34 148.88, 372.38 146.93 M404.38 114.93 C404.65 137.44, 392.57 145.82, 372.38 146.93 M372.38 146.93 C252.12 146.1, 130.96 145.29, 32 146.93 M372.38 146.93 C275.77 148.1, 179.34 147.24, 32 146.93 M32 146.93 C11.56 145.29, -1.86 136.56, 0 114.93 M32 146.93 C10.62 147.92, -0.96 136.46, 0 114.93 M0 114.93 C0.31 87.18, -1.15 58.48, 0 32 M0 114.93 C0.27 85.15, -0.34 54.21, 0 32 M0 32 C1.49 9.92, 11.69 -1.44, 32 0 M0 32 C0.47 9.3, 12.17 2.23, 32 0" stroke="#1e1e1e" stroke-width="2" fill="none"></path></g><g transform="translate(975.0249768108285 778.4625699034062) rotate(0 17.58898162841797 16.253336298932368)"><text x="17.58898162841797" y="0" font-family="Virgil, Segoe UI Emoji" font-size="26.005338078291814px" fill="#1e1e1e" text-anchor="middle" style="white-space: pre;" direction="ltr" dominant-baseline="text-before-edge">img</text></g><g stroke-linecap="round" transform="translate(794.9733890442287 883.784189120488) rotate(0 197.4780360320284 38.195340302491104)"><path d="M19.1 0 C105.92 2.01, 188.9 1.27, 375.86 0 C385.62 -1.04, 396.07 3.2, 394.96 19.1 C397.88 31.96, 392.36 46.17, 394.96 57.29 C393.61 68.8, 391.16 78.65, 375.86 76.39 C239.54 79.63, 106.88 77.47, 19.1 76.39 C8 73.5, 1.03 73.47, 0 57.29 C-1.03 44.86, 0.65 31.47, 0 19.1 C0.07 7.55, 9.71 -0.71, 19.1 0" stroke="none" stroke-width="0" fill="#ffffff"></path><path d="M19.1 0 C106.84 2.21, 195.96 2.94, 375.86 0 M19.1 0 C142.34 0.56, 265.23 0.68, 375.86 0 M375.86 0 C389.87 0.19, 393.33 4.87, 394.96 19.1 M375.86 0 C387.25 -0.79, 393.04 4.65, 394.96 19.1 M394.96 19.1 C394.64 31.85, 395.13 48.33, 394.96 57.29 M394.96 19.1 C395.57 31.8, 394.32 45.9, 394.96 57.29 M394.96 57.29 C395.19 71.05, 387.6 75.42, 375.86 76.39 M394.96 57.29 C396.17 67.85, 387.6 76.06, 375.86 76.39 M375.86 76.39 C264.79 76.24, 154.48 74.47, 19.1 76.39 M375.86 76.39 C237.08 74.96, 97.14 75.58, 19.1 76.39 M19.1 76.39 C6.32 77.25, -0.84 70.2, 0 57.29 M19.1 76.39 C7.32 74.17, 2.15 69.46, 0 57.29 M0 57.29 C1.63 43.21, -1.46 31.44, 0 19.1 M0 57.29 C1.12 44.18, 0.88 31.09, 0 19.1 M0 19.1 C0.41 5.17, 7.67 1.94, 19.1 0 M0 19.1 C-1.35 5.7, 5.31 -0.4, 19.1 0" stroke="#1e1e1e" stroke-width="2" fill="none"></path></g><g transform="translate(980.2614228520579 911.414860828673) rotate(0 6.40899658203125 16.253336298932368)"><text x="0" y="0" font-family="Virgil, Segoe UI Emoji" font-size="26.005338078291814px" fill="#1e1e1e" text-anchor="start" style="white-space: pre;" direction="ltr" dominant-baseline="text-before-edge">p</text></g><g stroke-linecap="round" transform="translate(672.4999999999991 1011.875) rotate(0 334.375 240.62499999999977)"><path d="M32 0 C169.8 -1.85, 307.3 -0.38, 636.75 0 C661.68 1.09, 665.23 9.74, 668.75 32 C668.04 179.86, 668.61 325.41, 668.75 449.25 C670.29 470.78, 657.94 483.3, 636.75 481.25 C450.82 481.43, 265.94 481.87, 32 481.25 C11.83 481.6, -1.71 469.97, 0 449.25 C-0.21 304.48, 0.37 156.96, 0 32 C2.08 12.78, 12.93 -1.92, 32 0" stroke="none" stroke-width="0" fill="#ffffff"></path><path d="M32 0 C241.53 0.28, 451.37 1.29, 636.75 0 M32 0 C219.33 -0.18, 405.88 -0.24, 636.75 0 M636.75 0 C659.46 1.98, 666.86 9.29, 668.75 32 M636.75 0 C659.3 -1.35, 668.29 10.21, 668.75 32 M668.75 32 C669.14 135.52, 668.4 239.34, 668.75 449.25 M668.75 32 C667.02 185.07, 667.56 337.62, 668.75 449.25 M668.75 449.25 C670.4 472.3, 656.7 480.45, 636.75 481.25 M668.75 449.25 C666.57 470.7, 657.37 481.69, 636.75 481.25 M636.75 481.25 C413.5 481.72, 191.3 481.93, 32 481.25 M636.75 481.25 C482.97 479.29, 329.76 478.67, 32 481.25 M32 481.25 C8.76 480.45, -0.78 469.35, 0 449.25 M32 481.25 C10.18 482.97, 0.25 472.18, 0 449.25 M0 449.25 C0.2 329.66, 0.84 209.25, 0 32 M0 449.25 C-0.24 357.96, 0.06 266.94, 0 32 M0 32 C0.5 10.71, 11.13 0.31, 32 0 M0 32 C-2.27 9.62, 8.37 1.67, 32 0" stroke="#1e1e1e" stroke-width="2" fill="none"></path></g><g stroke-linecap="round" transform="translate(803.3035714285704 510.9821428571429) rotate(0 179.6875 42.1875)"><path d="M21.09 0 C134.59 -2.2, 247.74 0.39, 338.28 0 C349.46 -3.02, 362.2 6.57, 359.38 21.09 C362.86 37.17, 360.04 46.99, 359.38 63.28 C359.38 80.22, 352.23 85.44, 338.28 84.38 C225.13 87.9, 109.65 87.93, 21.09 84.38 C7.48 87.3, 3.22 77.23, 0 63.28 C0.97 49.68, 0.72 35.2, 0 21.09 C-2.04 5.59, 9.21 -0.78, 21.09 0" stroke="none" stroke-width="0" fill="#ffffff"></path><path d="M21.09 0 C93.45 0.64, 166.31 1.54, 338.28 0 M21.09 0 C104.83 -0.66, 186.97 -1.54, 338.28 0 M338.28 0 C353.83 -1.38, 358.67 7.88, 359.38 21.09 M338.28 0 C353.04 -2.1, 359.31 4.99, 359.38 21.09 M359.38 21.09 C358.09 34.97, 359.68 52.86, 359.38 63.28 M359.38 21.09 C359.6 32.9, 359.97 45.14, 359.38 63.28 M359.38 63.28 C358.55 79.25, 353.54 85.37, 338.28 84.38 M359.38 63.28 C360.91 75.72, 353.07 86.03, 338.28 84.38 M338.28 84.38 C232.92 82.8, 126.32 84.4, 21.09 84.38 M338.28 84.38 C217.71 85.69, 96.9 85.74, 21.09 84.38 M21.09 84.38 C6.45 84.72, -0.77 76.29, 0 63.28 M21.09 84.38 C8 86.18, 1.06 75.09, 0 63.28 M0 63.28 C1.72 46.08, -1.46 31.45, 0 21.09 M0 63.28 C0.35 46.91, -0.08 31.25, 0 21.09 M0 21.09 C-1.13 8.68, 5.5 0.35, 21.09 0 M0 21.09 C-1.87 7.09, 9.18 -0.5, 21.09 0" stroke="#1e1e1e" stroke-width="2" fill="none"></path></g><g transform="translate(978.0610787527892 540.6696428571429) rotate(0 4.92999267578125 12.5)"><text x="4.92999267578125" y="0" font-family="Virgil, Segoe UI Emoji" font-size="20px" fill="#1e1e1e" text-anchor="middle" style="white-space: pre;" direction="ltr" dominant-baseline="text-before-edge">p</text></g><g stroke-linecap="round" transform="translate(815.8035714285704 601.6071428571429) rotate(0 173.4375 42.1875)"><path d="M21.09 0 C106.03 0.41, 185.19 1.57, 325.78 0 C339.72 2.02, 346.35 8.52, 346.88 21.09 C344.43 33.49, 345.06 42.83, 346.88 63.28 C347.08 79.6, 343.02 81.88, 325.78 84.38 C208.55 88.85, 85.74 85.82, 21.09 84.38 C10.55 85.79, 0.91 80.78, 0 63.28 C-0.14 49.76, 0.8 38.19, 0 21.09 C1.23 9.51, 7.15 -2.76, 21.09 0" stroke="none" stroke-width="0" fill="#ffffff"></path><path d="M21.09 0 C141.55 -0.93, 262.94 -2.16, 325.78 0 M21.09 0 C135.6 -1.31, 249.76 -1.04, 325.78 0 M325.78 0 C338.71 -0.8, 348.09 6.6, 346.88 21.09 M325.78 0 C338.4 0.5, 346.12 6.23, 346.88 21.09 M346.88 21.09 C347.54 37.83, 346.41 49.92, 346.88 63.28 M346.88 21.09 C347.55 29.66, 345.56 39.17, 346.88 63.28 M346.88 63.28 C348.2 77.4, 341.41 85.97, 325.78 84.38 M346.88 63.28 C345.5 75.32, 341.13 84.31, 325.78 84.38 M325.78 84.38 C232 85.6, 136.02 84.5, 21.09 84.38 M325.78 84.38 C247.73 83.08, 170.93 82.22, 21.09 84.38 M21.09 84.38 C6.19 84.83, 0.85 76.63, 0 63.28 M21.09 84.38 C5.88 82.54, 1.11 75.18, 0 63.28 M0 63.28 C0.14 49.02, 0.87 34.09, 0 21.09 M0 63.28 C-0.51 50.96, -0.56 38.19, 0 21.09 M0 21.09 C-0.24 5.54, 6.12 -0.46, 21.09 0 M0 21.09 C-0.37 6.91, 8.45 -2.04, 21.09 0" stroke="#1e1e1e" stroke-width="2" fill="none"></path></g><g transform="translate(984.3110787527892 631.2946428571429) rotate(0 4.92999267578125 12.5)"><text x="4.92999267578125" y="0" font-family="Virgil, Segoe UI Emoji" font-size="20px" fill="#1e1e1e" text-anchor="middle" style="white-space: pre;" direction="ltr" dominant-baseline="text-before-edge">p</text></g><g stroke-linecap="round" transform="translate(884.9999999999991 1030.6249999999998) rotate(0 93.75 18.75)"><path d="M9.38 0 C68.65 2.88, 121.87 0.81, 178.13 0 C187.28 -1.62, 187.69 2.56, 187.5 9.38 C188.59 16.56, 189.44 16.18, 187.5 28.13 C186.23 31.95, 182.09 34.32, 178.13 37.5 C120.77 36.24, 64.49 38.47, 9.38 37.5 C2.41 34.8, -1.54 36.87, 0 28.13 C0.86 23.42, -2.27 15.4, 0 9.38 C3.07 1.09, 2.8 1.17, 9.38 0" stroke="none" stroke-width="0" fill="#ffffff"></path><path d="M9.38 0 C69.23 0.25, 124.07 -0.02, 178.13 0 M9.38 0 C44.29 0.35, 77.39 -1.3, 178.13 0 M178.13 0 C185.56 0.72, 189.37 4.2, 187.5 9.38 M178.13 0 C184.9 -2.17, 185.33 0.87, 187.5 9.38 M187.5 9.38 C188.32 12.24, 188.11 17.94, 187.5 28.13 M187.5 9.38 C187.78 12.76, 188.07 16.65, 187.5 28.13 M187.5 28.13 C186.19 33.2, 183.6 38.21, 178.13 37.5 M187.5 28.13 C187.31 36.22, 184.79 36.23, 178.13 37.5 M178.13 37.5 C120.25 38.99, 61.13 36.21, 9.38 37.5 M178.13 37.5 C129.54 39.94, 78.97 39.95, 9.38 37.5 M9.38 37.5 C3.15 35.73, -0.6 32.99, 0 28.13 M9.38 37.5 C3.49 37.88, -0.85 35.47, 0 28.13 M0 28.13 C0.52 21.04, 0.95 15.36, 0 9.38 M0 28.13 C-0.63 21.39, -0.53 16.78, 0 9.38 M0 9.38 C-0.06 2.34, 1.28 -0.84, 9.38 0 M0 9.38 C-2.3 3.58, 3.76 -0.25, 9.38 0" stroke="#1e1e1e" stroke-width="2" fill="none"></path></g><g transform="translate(966.6900100707999 1036.8749999999998) rotate(0 12.059989929199219 12.5)"><text x="12.059989929199219" y="0" font-family="Virgil, Segoe UI Emoji" font-size="20px" fill="#1e1e1e" text-anchor="middle" style="white-space: pre;" direction="ltr" dominant-baseline="text-before-edge">h2</text></g><g stroke-linecap="round" transform="translate(797.4999999999991 1089.9999999999998) rotate(0 204.6875 85.9375)"><path d="M32 0 C126.38 2.4, 220.89 4.1, 377.38 0 C400.45 -2.56, 411.67 10.89, 409.38 32 C412.74 75.22, 409.84 111.35, 409.38 139.88 C409.45 162.72, 402.05 170.89, 377.38 171.88 C246.42 171.75, 117.16 169.37, 32 171.88 C13.5 172.98, -1.67 161.45, 0 139.88 C-0.51 100.97, -0.44 62.11, 0 32 C3.4 9.13, 8.22 2.19, 32 0" stroke="none" stroke-width="0" fill="#ffffff"></path><path d="M32 0 C113.63 1.89, 194.12 1.36, 377.38 0 M32 0 C155.43 -0.59, 279.08 -1.21, 377.38 0 M377.38 0 C398.08 1.37, 408.12 9.93, 409.38 32 M377.38 0 C400.11 0.92, 411.12 12.19, 409.38 32 M409.38 32 C409.33 54.25, 408.39 77.42, 409.38 139.88 M409.38 32 C408.63 64.7, 410.23 96.75, 409.38 139.88 M409.38 139.88 C409.41 160.5, 397.8 170.39, 377.38 171.88 M409.38 139.88 C407.19 161.89, 399.12 172.05, 377.38 171.88 M377.38 171.88 C291.53 172.64, 205.42 172.17, 32 171.88 M377.38 171.88 C293.2 172.22, 208.98 172.23, 32 171.88 M32 171.88 C10.72 172.81, -1.49 160.14, 0 139.88 M32 171.88 C12.62 172.26, -0.64 161.33, 0 139.88 M0 139.88 C-0.75 112.63, 1.14 84.17, 0 32 M0 139.88 C0.09 113.31, 0.23 86.43, 0 32 M0 32 C0.6 9.91, 8.72 0.64, 32 0 M0 32 C0.33 11.87, 10.16 -1.39, 32 0" stroke="#1e1e1e" stroke-width="2" fill="none"></path></g><g stroke-linecap="round" transform="translate(819.3749999999991 1102.4999999999998) rotate(0 70.3125 17.5)"><path d="M8.75 0 C50.41 1.6, 92.24 -2.31, 131.88 0 C135.5 3, 140.1 5.23, 140.63 8.75 C144.03 9.82, 140 13.71, 140.63 26.25 C140.17 30.14, 139.92 33.03, 131.88 35 C108.99 34.86, 77.88 31.3, 8.75 35 C6.23 32.67, 0.74 35.68, 0 26.25 C2.67 21.27, -3.02 16.35, 0 8.75 C-2.85 6.25, 3.27 0.98, 8.75 0" stroke="none" stroke-width="0" fill="#ffffff"></path><path d="M8.75 0 C49.76 0.76, 93.01 0.23, 131.88 0 M8.75 0 C38.89 0.95, 66.73 0.51, 131.88 0 M131.88 0 C136.49 -1.73, 141.09 3.22, 140.63 8.75 M131.88 0 C136.12 -0.67, 142.46 1.61, 140.63 8.75 M140.63 8.75 C139.06 12.57, 142.09 18.61, 140.63 26.25 M140.63 8.75 C140.91 16.23, 140.63 22.09, 140.63 26.25 M140.63 26.25 C138.68 31.57, 137.05 35.54, 131.88 35 M140.63 26.25 C138.89 34.22, 137.03 33.81, 131.88 35 M131.88 35 C89.25 34.57, 46.66 36.49, 8.75 35 M131.88 35 C105.37 35.28, 79.75 34.86, 8.75 35 M8.75 35 C2.96 33.29, -0.51 30.54, 0 26.25 M8.75 35 C1.9 33.18, 0.4 30.96, 0 26.25 M0 26.25 C1.68 22.63, 0.82 17.12, 0 8.75 M0 26.25 C-0.8 22.15, -0.07 16.71, 0 8.75 M0 8.75 C0.19 4.74, 2.15 1.4, 8.75 0 M0 8.75 C1.21 0.98, 3.47 2.12, 8.75 0" stroke="#1e1e1e" stroke-width="2" fill="none"></path></g><g transform="translate(883.0175018310538 1107.4999999999998) rotate(0 6.6699981689453125 12.5)"><text x="6.6699981689453125" y="0" font-family="Virgil, Segoe UI Emoji" font-size="20px" fill="#1e1e1e" text-anchor="middle" style="white-space: pre;" direction="ltr" dominant-baseline="text-before-edge">a</text></g><g stroke-linecap="round" transform="translate(991.2499999999991 1102.4999999999998) rotate(0 71.875 17.5)"><path d="M8.75 0 C56.64 0.81, 101.48 3.97, 135 0 C144.2 0.23, 144.92 0.77, 143.75 8.75 C144.88 12.8, 144.07 16.63, 143.75 26.25 C146.26 32.12, 139.39 32.44, 135 35 C96.63 39.49, 60.26 38.32, 8.75 35 C4.19 33.83, 0.65 29.77, 0 26.25 C-0.59 20.59, 2.13 18.44, 0 8.75 C2.87 5.29, 4.91 3.13, 8.75 0" stroke="none" stroke-width="0" fill="#ffffff"></path><path d="M8.75 0 C41.78 1.39, 75.87 -1.55, 135 0 M8.75 0 C48.61 -1.56, 87.21 -0.32, 135 0 M135 0 C139.54 0.41, 145.75 4.1, 143.75 8.75 M135 0 C141.18 1.1, 145.74 3.87, 143.75 8.75 M143.75 8.75 C145.52 12.52, 144.37 15.09, 143.75 26.25 M143.75 8.75 C143.21 14.19, 144.56 17.73, 143.75 26.25 M143.75 26.25 C142.96 33.19, 140.84 36.32, 135 35 M143.75 26.25 C141.59 32.86, 140.25 33.01, 135 35 M135 35 C98.99 34.21, 64.64 33.94, 8.75 35 M135 35 C101.05 35.1, 66.07 34.24, 8.75 35 M8.75 35 C4.56 35.79, 0.47 31.27, 0 26.25 M8.75 35 C3.62 35.51, -0.26 30.65, 0 26.25 M0 26.25 C1.59 19.2, 0.23 13.41, 0 8.75 M0 26.25 C0.66 20.69, -0.8 15.62, 0 8.75 M0 8.75 C0.42 1.41, 3.86 1.77, 8.75 0 M0 8.75 C-0.23 3.96, 1.04 0.27, 8.75 0" stroke="#1e1e1e" stroke-width="2" fill="none"></path></g><g transform="translate(1056.4550018310538 1107.4999999999998) rotate(0 6.6699981689453125 12.5)"><text x="6.6699981689453125" y="0" font-family="Virgil, Segoe UI Emoji" font-size="20px" fill="#1e1e1e" text-anchor="middle" style="white-space: pre;" direction="ltr" dominant-baseline="text-before-edge">a</text></g><g stroke-linecap="round" transform="translate(853.7499999999991 1161.8749999999998) rotate(0 143.75 37.5)"><path d="M18.75 0 C89.51 -4.22, 156.66 -0.96, 268.75 0 C280.26 -2.86, 284.58 3.04, 287.5 18.75 C284.27 32.87, 288.36 41.53, 287.5 56.25 C285.36 68.02, 284.63 71.52, 268.75 75 C189.75 70.44, 105.34 75.04, 18.75 75 C4.2 76.44, 2.57 68.62, 0 56.25 C0.58 46.39, -0.75 32.16, 0 18.75 C0.03 3.34, 3.41 -2.53, 18.75 0" stroke="none" stroke-width="0" fill="#ffffff"></path><path d="M18.75 0 C103.92 -0.98, 187.22 -1.28, 268.75 0 M18.75 0 C112.91 0.85, 207.22 1.24, 268.75 0 M268.75 0 C281.92 -1.96, 286.61 4.66, 287.5 18.75 M268.75 0 C283.51 -0.67, 288.67 5.53, 287.5 18.75 M287.5 18.75 C288.16 29.85, 286.97 43.94, 287.5 56.25 M287.5 18.75 C288.38 33.14, 287.53 45.92, 287.5 56.25 M287.5 56.25 C286.95 70.49, 282.68 76.76, 268.75 75 M287.5 56.25 C285.5 69.48, 282.92 76.87, 268.75 75 M268.75 75 C186.98 75.01, 103.69 75.6, 18.75 75 M268.75 75 C198.45 75.29, 126.5 75.12, 18.75 75 M18.75 75 C6.6 76.29, 0.95 69.04, 0 56.25 M18.75 75 C5.12 75.48, 0.96 68.55, 0 56.25 M0 56.25 C0.19 43.29, -1.39 26.76, 0 18.75 M0 56.25 C-0.41 44.45, 1.1 32.28, 0 18.75 M0 18.75 C-0.74 6.78, 7.98 -0.89, 18.75 0 M0 18.75 C0.13 6.8, 6.85 1.85, 18.75 0" stroke="#1e1e1e" stroke-width="2" fill="none"></path></g><g transform="translate(966.2499999999991 1193.1249999999998) rotate(0 4.92999267578125 12.5)"><text x="0" y="0" font-family="Virgil, Segoe UI Emoji" font-size="20px" fill="#1e1e1e" text-anchor="start" style="white-space: pre;" direction="ltr" dominant-baseline="text-before-edge">p</text></g><g stroke-linecap="round" transform="translate(809.9999999999991 1271.2499999999998) rotate(0 203.125 92.18749999999989)"><path d="M32 0 C134.66 -3.24, 237.98 0.05, 374.25 0 C396.65 1.73, 405.83 8.67, 406.25 32 C407.47 59.52, 407.54 84.26, 406.25 152.37 C409.38 172.44, 397.77 183.61, 374.25 184.37 C304.05 189.26, 233.21 186.97, 32 184.37 C10.64 183.45, 3.28 172.72, 0 152.37 C2.2 120.27, 3.35 94.08, 0 32 C-3.05 9.04, 11.18 -2.5, 32 0" stroke="none" stroke-width="0" fill="#ffffff"></path><path d="M32 0 C154.32 -1, 279.23 0.09, 374.25 0 M32 0 C110.52 -1.51, 188.12 -1, 374.25 0 M374.25 0 C394.46 0.48, 404.78 9.51, 406.25 32 M374.25 0 C395.27 0.06, 406.15 12.5, 406.25 32 M406.25 32 C406.29 73.1, 408.06 115.3, 406.25 152.37 M406.25 32 C404.45 62.46, 404.7 91.15, 406.25 152.37 M406.25 152.37 C405.17 174.16, 393.59 182.48, 374.25 184.37 M406.25 152.37 C407.18 173.74, 397.43 186.15, 374.25 184.37 M374.25 184.37 C269.17 183.3, 163.37 183.31, 32 184.37 M374.25 184.37 C252.07 186.41, 130.47 186.44, 32 184.37 M32 184.37 C12.67 186.15, -1.64 175.31, 0 152.37 M32 184.37 C11.97 185.34, 0.57 172.03, 0 152.37 M0 152.37 C2.29 121.54, 0.34 87.57, 0 32 M0 152.37 C1.04 127.2, 0.56 100.22, 0 32 M0 32 C-1.24 11.67, 9.17 1.06, 32 0 M0 32 C-0.51 11.41, 11.91 -1.68, 32 0" stroke="#1e1e1e" stroke-width="2" fill="none"></path></g><g transform="translate(947.4999999999991 1349.3749999999998) rotate(0 13.529983520507812 12.5)"><text x="0" y="0" font-family="Virgil, Segoe UI Emoji" font-size="20px" fill="#1e1e1e" text-anchor="start" style="white-space: pre;" direction="ltr" dominant-baseline="text-before-edge">img</text></g><g stroke-linecap="round" transform="translate(660 1514.999999999999) rotate(0 337.5 428.125)"><path d="M32 0 C186.98 2.83, 340.92 2.61, 643 0 C664.95 0.65, 676.28 12.08, 675 32 C675.9 266.66, 677.33 502.84, 675 824.25 C673.64 844.32, 661.34 855.14, 643 856.25 C506.5 859.03, 368.32 860.51, 32 856.25 C10.12 856.11, 0.01 842.96, 0 824.25 C-0.16 596.43, -0.45 367.38, 0 32 C-1.57 14.11, 11.33 0.59, 32 0" stroke="none" stroke-width="0" fill="#ffffff"></path><path d="M32 0 C221.45 -0.03, 411.4 0.16, 643 0 M32 0 C171.24 0.11, 310.4 0.08, 643 0 M643 0 C662.36 -0.51, 675.12 8.93, 675 32 M643 0 C664.49 1.12, 673.69 8.57, 675 32 M675 32 C673.11 213.83, 673.75 394.02, 675 824.25 M675 32 C677.58 294.4, 677.47 555.79, 675 824.25 M675 824.25 C675.73 845.33, 664.49 857.13, 643 856.25 M675 824.25 C676.3 843.37, 663.2 858.49, 643 856.25 M643 856.25 C464.28 853.67, 284.16 853.92, 32 856.25 M643 856.25 C467.33 856.26, 292.32 856.08, 32 856.25 M32 856.25 C10.35 858.2, -1.55 847.16, 0 824.25 M32 856.25 C8.54 856.05, -0.24 847.09, 0 824.25 M0 824.25 C1.33 653.92, 1.67 485.41, 0 32 M0 824.25 C-1.04 634.99, -0.4 446.03, 0 32 M0 32 C1.94 12.06, 8.71 -0.96, 32 0 M0 32 C2.21 10.24, 12.19 1.95, 32 0" stroke="#1e1e1e" stroke-width="2" fill="none"></path></g><g stroke-linecap="round" transform="translate(697.4999999999991 1646.249999999999) rotate(0 275 25)"><path d="M12.5 0 C143.43 -3.2, 276.2 -0.88, 537.5 0 C542.65 -2.49, 551.21 5.36, 550 12.5 C546.48 17.16, 553.37 26.14, 550 37.5 C550.99 43.65, 544.77 47.6, 537.5 50 C335.6 49.74, 135.56 51.01, 12.5 50 C2.34 50.84, -2.32 47.32, 0 37.5 C2.65 34.68, -3.1 30.23, 0 12.5 C-3.32 5.33, 2.28 0.33, 12.5 0" stroke="none" stroke-width="0" fill="#ffffff"></path><path d="M12.5 0 C163.94 1.79, 314.78 0.47, 537.5 0 M12.5 0 C178.41 -1.18, 345.08 -1.18, 537.5 0 M537.5 0 C545.86 -1.59, 549.41 5.11, 550 12.5 M537.5 0 C544.64 0.3, 547.96 5.64, 550 12.5 M550 12.5 C548.93 22.41, 548.69 32.54, 550 37.5 M550 12.5 C551.06 18.84, 550.67 24.67, 550 37.5 M550 37.5 C550.81 45.55, 546.46 51.38, 537.5 50 M550 37.5 C550.94 45.54, 546.69 48.31, 537.5 50 M537.5 50 C425.55 49.43, 315.39 49.86, 12.5 50 M537.5 50 C363.28 51.68, 188.63 52.19, 12.5 50 M12.5 50 C2.5 51.61, -0.22 45.31, 0 37.5 M12.5 50 C3.37 48.43, -0.91 45.33, 0 37.5 M0 37.5 C-0.13 30.56, 1.49 22.14, 0 12.5 M0 37.5 C0.23 32.02, 0.55 26.38, 0 12.5 M0 12.5 C-0.96 5.54, 2.7 0.63, 12.5 0 M0 12.5 C-1.07 6.23, 2.88 -2.27, 12.5 0" stroke="#1e1e1e" stroke-width="2" fill="none"></path></g><g transform="translate(967.5700073242178 1658.749999999999) rotate(0 4.92999267578125 12.5)"><text x="4.92999267578125" y="0" font-family="Virgil, Segoe UI Emoji" font-size="20px" fill="#1e1e1e" text-anchor="middle" style="white-space: pre;" direction="ltr" dominant-baseline="text-before-edge">p</text></g><g stroke-linecap="round" transform="translate(741.2499999999991 1746.249999999999) rotate(0 240.625 87.5)"><path d="M32 0 C119.71 2.12, 207.4 0.7, 449.25 0 C473 0.6, 481.42 7.81, 481.25 32 C480.84 62.24, 476.04 91.98, 481.25 143 C478.57 167.05, 467.45 171.48, 449.25 175 C341.08 173.59, 232.43 173.22, 32 175 C10.56 172.09, -2.3 161.05, 0 143 C-2.2 100.9, -2.7 57.32, 0 32 C0.07 10.44, 12.45 -0.39, 32 0" stroke="none" stroke-width="0" fill="#ffffff"></path><path d="M32 0 C163.04 1.51, 291.43 1.33, 449.25 0 M32 0 C129.73 1.78, 228.84 2.36, 449.25 0 M449.25 0 C468.61 1.83, 479.41 11.31, 481.25 32 M449.25 0 C469.38 0.21, 482.37 9.04, 481.25 32 M481.25 32 C483.89 72.49, 480.94 115.41, 481.25 143 M481.25 32 C481.49 65.71, 483 96.87, 481.25 143 M481.25 143 C482.31 163.47, 471.06 173.71, 449.25 175 M481.25 143 C481.75 164.33, 470.38 176.66, 449.25 175 M449.25 175 C334.58 174.76, 221.45 175, 32 175 M449.25 175 C327.94 176.11, 206.75 175.57, 32 175 M32 175 C9.35 176.68, 0.46 165.77, 0 143 M32 175 C10.3 176.23, 0.72 165.83, 0 143 M0 143 C0.18 106.83, -0.04 68.44, 0 32 M0 143 C-0.78 111.83, 0.04 79.84, 0 32 M0 32 C-1.38 10.85, 10.27 1.18, 32 0 M0 32 C-0.43 11.52, 12.35 2.03, 32 0" stroke="#1e1e1e" stroke-width="2" fill="none"></path></g><g stroke-linecap="round" transform="translate(759.9999999999991 1952.499999999999) rotate(0 228.125 37.5)"><path d="M18.75 0 C175.01 -5.57, 333.58 -5.78, 437.5 0 C453.47 0.84, 458.76 9.55, 456.25 18.75 C455.35 33.65, 456.83 43.62, 456.25 56.25 C452.82 70.33, 449.85 75.96, 437.5 75 C270.57 75.29, 105.18 76, 18.75 75 C4.53 74.89, 2.21 71.11, 0 56.25 C2.86 45.58, 0.46 43.12, 0 18.75 C3.03 3.8, 7.32 0.09, 18.75 0" stroke="none" stroke-width="0" fill="#ffffff"></path><path d="M18.75 0 C151.09 0.81, 283.54 2.2, 437.5 0 M18.75 0 C137.13 1.45, 255.84 0.53, 437.5 0 M437.5 0 C449.15 -1.83, 456.29 5.5, 456.25 18.75 M437.5 0 C448.22 -2.28, 454.03 6.18, 456.25 18.75 M456.25 18.75 C457.69 28.11, 457.23 34.59, 456.25 56.25 M456.25 18.75 C456.11 30.46, 456.58 42.2, 456.25 56.25 M456.25 56.25 C455.81 67.59, 451.56 75.13, 437.5 75 M456.25 56.25 C457.02 68.59, 449.9 73.67, 437.5 75 M437.5 75 C326.15 75.74, 215.66 76.13, 18.75 75 M437.5 75 C310.81 75.55, 183.23 75.21, 18.75 75 M18.75 75 C6.37 76.61, -1.78 69.86, 0 56.25 M18.75 75 C7.43 72.72, -2.3 66.9, 0 56.25 M0 56.25 C0.68 49.18, -0.75 36.61, 0 18.75 M0 56.25 C0.4 45.37, 0.93 34.94, 0 18.75 M0 18.75 C0.53 6.97, 6.71 1.1, 18.75 0 M0 18.75 C0.5 5.5, 7.82 -1.49, 18.75 0" stroke="#1e1e1e" stroke-width="2" fill="none"></path></g><g stroke-linecap="round" transform="translate(766.2499999999991 2071.2499999999986) rotate(0 231.25 121.87499999999977)"><path d="M32 0 C159.8 -3.11, 285.75 -2.26, 430.5 0 C452.85 -1.89, 462.63 8.97, 462.5 32 C462.21 82.26, 457.49 123.94, 462.5 211.75 C460.6 233.02, 452.57 240.96, 430.5 243.75 C342.76 241.04, 253.23 243.25, 32 243.75 C13.01 245.98, -2.8 234.4, 0 211.75 C1.88 173.79, -3.49 132.5, 0 32 C-3.02 8.04, 8.72 -1.62, 32 0" stroke="none" stroke-width="0" fill="#ffffff"></path><path d="M32 0 C150.81 -2.12, 267.08 -2.1, 430.5 0 M32 0 C128.68 1.43, 225.77 0.54, 430.5 0 M430.5 0 C452.65 0.36, 464.24 8.99, 462.5 32 M430.5 0 C452.3 1.4, 464.43 9.1, 462.5 32 M462.5 32 C462.7 92.73, 460.94 148.76, 462.5 211.75 M462.5 32 C461.93 88.17, 462.33 144.62, 462.5 211.75 M462.5 211.75 C462.03 232.73, 452.38 242.83, 430.5 243.75 M462.5 211.75 C460.7 234.32, 451.32 241.97, 430.5 243.75 M430.5 243.75 C278.7 242.07, 127.9 241.74, 32 243.75 M430.5 243.75 C278.81 243.37, 126.09 243.04, 32 243.75 M32 243.75 C12.13 242.37, 1.57 233.4, 0 211.75 M32 243.75 C11.93 242.66, -1.23 233.94, 0 211.75 M0 211.75 C0.8 153.88, -1.2 95.46, 0 32 M0 211.75 C1.63 164.36, 0.79 117.83, 0 32 M0 32 C0.16 9.29, 8.9 0.93, 32 0 M0 32 C1.58 9.34, 8.42 -0.71, 32 0" stroke="#1e1e1e" stroke-width="2" fill="none"></path></g><g transform="translate(976.4700241088858 2180.624999999998) rotate(0 21.02997589111328 12.5)"><text x="21.02997589111328" y="0" font-family="Virgil, Segoe UI Emoji" font-size="20px" fill="#1e1e1e" text-anchor="middle" style="white-space: pre;" direction="ltr" dominant-baseline="text-before-edge">form</text></g><g stroke-linecap="round" transform="translate(841.2499999999991 1539.999999999999) rotate(0 121.875 31.25)"><path d="M15.63 0 C71.77 -1.12, 132.39 -5.09, 228.13 0 C236.34 2.37, 241.82 8.13, 243.75 15.63 C246.13 28.8, 243.22 36, 243.75 46.88 C240.6 56.45, 236.78 65.87, 228.13 62.5 C158.51 59.09, 91.69 61.12, 15.63 62.5 C7.96 61.72, 0.85 56.74, 0 46.88 C-3.19 40.21, -0.81 30.17, 0 15.63 C-0.06 5.89, 4.57 1.32, 15.63 0" stroke="none" stroke-width="0" fill="#ffffff"></path><path d="M15.63 0 C73.98 -0.27, 134.32 -1.37, 228.13 0 M15.63 0 C73.66 -0.75, 130.44 -1.33, 228.13 0 M228.13 0 C237.5 -0.14, 244.87 3.87, 243.75 15.63 M228.13 0 C239.13 -1.39, 241.88 5.37, 243.75 15.63 M243.75 15.63 C242.95 24.99, 243.31 31.83, 243.75 46.88 M243.75 15.63 C243.69 25, 244.31 33.18, 243.75 46.88 M243.75 46.88 C245.17 55.93, 239.84 63.24, 228.13 62.5 M243.75 46.88 C242.23 59.1, 239.12 62.48, 228.13 62.5 M228.13 62.5 C145.91 60.59, 63.24 62.38, 15.63 62.5 M228.13 62.5 C170.27 64.1, 111.72 64.49, 15.63 62.5 M15.63 62.5 C5.01 61.23, -1.55 57.81, 0 46.88 M15.63 62.5 C6.37 63.09, -0.91 55.49, 0 46.88 M0 46.88 C0.06 38.64, -1.72 29.91, 0 15.63 M0 46.88 C0.83 36.89, 0.29 26.62, 0 15.63 M0 15.63 C1.34 6.88, 7.12 -1.18, 15.63 0 M0 15.63 C-1.53 4.08, 6.54 -1.38, 15.63 0" stroke="#1e1e1e" stroke-width="2" fill="none"></path></g><g transform="translate(951.0650100707999 1558.749999999999) rotate(0 12.059989929199219 12.5)"><text x="12.059989929199219" y="0" font-family="Virgil, Segoe UI Emoji" font-size="20px" fill="#1e1e1e" text-anchor="middle" style="white-space: pre;" direction="ltr" dominant-baseline="text-before-edge">h2</text></g><g transform="translate(941.2499999999991 1839.999999999999) rotate(0 13.529983520507812 12.5)"><text x="0" y="0" font-family="Virgil, Segoe UI Emoji" font-size="20px" fill="#1e1e1e" text-anchor="start" style="white-space: pre;" direction="ltr" dominant-baseline="text-before-edge">img</text></g><g transform="translate(903.7499999999991 2002.499999999999) rotate(0 4.92999267578125 12.5)"><text x="0" y="0" font-family="Virgil, Segoe UI Emoji" font-size="20px" fill="#1e1e1e" text-anchor="start" style="white-space: pre;" direction="ltr" dominant-baseline="text-before-edge">p</text></g><g stroke-linecap="round" transform="translate(535 2427.499999999998) rotate(0 428.12499999999955 121.875)"><path d="M32 0 C302.58 0.96, 571.37 0.21, 824.25 0 C846.72 -3.15, 855.95 11.91, 856.25 32 C856.66 94.54, 862.25 163.11, 856.25 211.75 C857.27 234.56, 846.21 247.05, 824.25 243.75 C570.77 245.04, 316.52 245.68, 32 243.75 C7.43 240.72, -1.53 232.02, 0 211.75 C-1.15 140.19, -3.2 65.94, 0 32 C-0.13 13.62, 8.31 1.66, 32 0" stroke="none" stroke-width="0" fill="#ffffff"></path><path d="M32 0 C211.81 0.71, 392.47 1.88, 824.25 0 M32 0 C196 -2.26, 359.88 -1.87, 824.25 0 M824.25 0 C847.03 -0.07, 855.39 10.54, 856.25 32 M824.25 0 C846.92 2.26, 855.15 9.42, 856.25 32 M856.25 32 C857.65 70.53, 854.96 114.15, 856.25 211.75 M856.25 32 C857.92 80.18, 856.61 126.82, 856.25 211.75 M856.25 211.75 C854.43 234.63, 843.96 242.54, 824.25 243.75 M856.25 211.75 C855.03 231.86, 843.33 244.78, 824.25 243.75 M824.25 243.75 C593.87 243.51, 364.73 243.39, 32 243.75 M824.25 243.75 C635.32 245.6, 446.35 245.81, 32 243.75 M32 243.75 C11.47 243.35, 1.69 233.09, 0 211.75 M32 243.75 C10.21 243.44, -0.81 231.86, 0 211.75 M0 211.75 C1.17 145.99, -0.68 81.79, 0 32 M0 211.75 C1.33 142.26, 0.62 74.42, 0 32 M0 32 C1.54 11.58, 9.43 0.99, 32 0 M0 32 C-0.43 10.81, 12.24 0.94, 32 0" stroke="#1e1e1e" stroke-width="2" fill="none"></path></g><g stroke-linecap="round"><g transform="translate(684.9999999999991 577.5) rotate(0 -212.49999999999955 31.25)"><path d="M-0.86 1.04 C-71.59 11.31, -353.24 51.26, -424.01 61.33 M0.88 0.54 C-69.95 10.94, -353.21 51.98, -424.44 62.25" stroke="#1e1e1e" stroke-width="2" fill="none"></path></g><g transform="translate(684.9999999999991 577.5) rotate(0 -212.49999999999955 31.25)"><path d="M-402.41 50.42 C-408 55.82, -418.97 57.26, -424.44 62.25 M-402.41 50.42 C-406.14 52.36, -412.06 54.8, -424.44 62.25" stroke="#1e1e1e" stroke-width="2" fill="none"></path></g><g transform="translate(684.9999999999991 577.5) rotate(0 -212.49999999999955 31.25)"><path d="M-399.97 67.35 C-406.31 67.13, -418.1 62.97, -424.44 62.25 M-399.97 67.35 C-404.07 65.75, -410.51 64.64, -424.44 62.25" stroke="#1e1e1e" stroke-width="2" fill="none"></path></g></g><mask></mask><g stroke-linecap="round"><g transform="translate(684.9999999999991 1208.7499999999995) rotate(0 -156.24999999999977 37.5)"><path d="M0.52 -0.62 C-51.77 11.71, -260.81 62.41, -312.79 75.15 M-0.66 1.67 C-53.22 14.73, -262.09 64.73, -313.89 76.76" stroke="#1e1e1e" stroke-width="2" fill="none"></path></g><g transform="translate(684.9999999999991 1208.7499999999995) rotate(0 -156.24999999999977 37.5)"><path d="M-293 63.03 C-301.86 67.87, -308.55 75.54, -313.89 76.76 M-293 63.03 C-300.45 68.33, -309.17 73.69, -313.89 76.76" stroke="#1e1e1e" stroke-width="2" fill="none"></path></g><g transform="translate(684.9999999999991 1208.7499999999995) rotate(0 -156.24999999999977 37.5)"><path d="M-289.06 79.67 C-299.58 78.19, -307.77 79.52, -313.89 76.76 M-289.06 79.67 C-297.89 78.92, -308.05 78.18, -313.89 76.76" stroke="#1e1e1e" stroke-width="2" fill="none"></path></g></g><mask></mask><g stroke-linecap="round"><g transform="translate(666.2499999999991 1958.749999999999) rotate(0 -245.12499999999955 18.571505324608665)"><path d="M-1.13 0.52 C-83.11 6.72, -409.66 31.41, -491.1 37.46 M0.48 -0.25 C-81.2 5.54, -407.04 29.13, -488.83 35.51" stroke="#1e1e1e" stroke-width="2" fill="none"></path></g><g transform="translate(666.2499999999991 1958.749999999999) rotate(0 -245.12499999999955 18.571505324608665)"><path d="M-466.04 25.23 C-473.56 27.4, -482.32 33.47, -488.83 35.51 M-466.04 25.23 C-472.95 28.46, -479.16 32.03, -488.83 35.51" stroke="#1e1e1e" stroke-width="2" fill="none"></path></g><g transform="translate(666.2499999999991 1958.749999999999) rotate(0 -245.12499999999955 18.571505324608665)"><path d="M-464.76 42.28 C-472.8 38.14, -482.03 37.91, -488.83 35.51 M-464.76 42.28 C-471.95 40.85, -478.5 39.75, -488.83 35.51" stroke="#1e1e1e" stroke-width="2" fill="none"></path></g></g><mask></mask><g stroke-linecap="round"><g transform="translate(628.75 415) rotate(0 -12.5 996.8749999999995)"><path d="M0.29 0.63 C-3.68 332.91, -19.57 1661.44, -23.93 1993.45 M-1.02 -0.09 C-5.04 332.4, -20.58 1662.57, -24.31 1994.82" stroke="#1e1e1e" stroke-width="2" fill="none"></path></g></g><mask></mask><g stroke-linecap="round"><g transform="translate(610 2408.749999999999) rotate(0 412.49999999999955 -9.375)"><path d="M-0.99 -0.19 C136.57 -3.06, 687.38 -14.89, 824.89 -18.15 M0.7 -1.33 C138.12 -4.47, 686.26 -17.02, 823.88 -19.96" stroke="#1e1e1e" stroke-width="2" fill="none"></path></g></g><mask></mask><g stroke-linecap="round"><g transform="translate(1416.249999999999 2389.999999999999) rotate(0 -21.875 -996.8749999999995)"><path d="M-0.27 0.49 C-7.61 -331.82, -35.81 -1661.65, -43.01 -1993.9 M1.79 -0.3 C-5.73 -332.42, -35.93 -1659.99, -43.57 -1992.44" stroke="#1e1e1e" stroke-width="2" fill="none"></path></g></g><mask></mask><g stroke-linecap="round"><g transform="translate(622.5 958.7499999999995) rotate(0 -240.625 12.5)"><path d="M0.99 1.05 C-79.11 5.36, -400.13 20.75, -480.4 24.77 M0.06 0.56 C-80.15 5.15, -400.71 21.85, -480.91 26.18" stroke="#1e1e1e" stroke-width="2" fill="none"></path></g><g transform="translate(622.5 958.7499999999995) rotate(0 -240.625 12.5)"><path d="M-457.9 16.4 C-463.52 21.1, -472.94 23.75, -480.91 26.18 M-457.9 16.4 C-465.17 18.34, -471.54 22.74, -480.91 26.18" stroke="#1e1e1e" stroke-width="2" fill="none"></path></g><g transform="translate(622.5 958.7499999999995) rotate(0 -240.625 12.5)"><path d="M-457 33.48 C-462.74 32.78, -472.45 30.03, -480.91 26.18 M-457 33.48 C-464.54 30.05, -471.2 29.09, -480.91 26.18" stroke="#1e1e1e" stroke-width="2" fill="none"></path></g></g><mask></mask><g stroke-linecap="round" transform="translate(91.25 646.25) rotate(0 78.125 37.5)"><path d="M18.75 0 C62.83 -1.85, 115.05 -0.88, 137.5 0 C150.06 -0.25, 157.75 6.53, 156.25 18.75 C155.81 30.38, 153.46 40.68, 156.25 56.25 C156.49 68.43, 149.64 74.67, 137.5 75 C111.05 71.22, 79.48 75.31, 18.75 75 C7.63 71.94, -3.06 70.51, 0 56.25 C-1.37 39.68, 1.16 27.97, 0 18.75 C-0.12 9.26, 3.69 -3.42, 18.75 0" stroke="none" stroke-width="0" fill="#ffffff"></path><path d="M18.75 0 C45.01 0.83, 72.38 -0.02, 137.5 0 M18.75 0 C47 -0.01, 77.91 0.94, 137.5 0 M137.5 0 C150.51 -1.27, 156.04 8.17, 156.25 18.75 M137.5 0 C149.74 -0.77, 156.38 5.48, 156.25 18.75 M156.25 18.75 C154.77 29.66, 155.08 41.4, 156.25 56.25 M156.25 18.75 C155.43 32.37, 155.77 45.55, 156.25 56.25 M156.25 56.25 C157.55 68.58, 149.33 74.93, 137.5 75 M156.25 56.25 C157.09 67.57, 150.1 75.25, 137.5 75 M137.5 75 C94.88 74.09, 57.78 72.54, 18.75 75 M137.5 75 C107.91 75.63, 79.28 75.07, 18.75 75 M18.75 75 C4.46 76.21, 1.14 68.4, 0 56.25 M18.75 75 C6.44 73.82, -1.45 66.93, 0 56.25 M0 56.25 C-1.72 42.7, -0.44 28.61, 0 18.75 M0 56.25 C0.43 45.24, 0.86 34.95, 0 18.75 M0 18.75 C0.04 7.21, 7.54 1.01, 18.75 0 M0 18.75 C0.84 4.86, 4.68 0.64, 18.75 0" stroke="#1e1e1e" stroke-width="2" fill="none"></path></g><g stroke-linecap="round" transform="translate(22.5 967.0833333333329) rotate(0 56.25 29.166666666666742)"><path d="M14.58 0 C35.93 -4, 60.4 -1.96, 97.92 0 C110.11 -2.95, 113.47 8.08, 112.5 14.58 C114.42 23.08, 109.93 27.88, 112.5 43.75 C113.25 51.49, 108.12 58.94, 97.92 58.33 C79.24 60.67, 57.1 60.34, 14.58 58.33 C4.54 57.53, -2.08 54.87, 0 43.75 C0.7 36.64, -0.88 26.45, 0 14.58 C0.6 6.77, 6.51 1.72, 14.58 0" stroke="none" stroke-width="0" fill="#ffffff"></path><path d="M14.58 0 C37.95 0.62, 61.7 1.42, 97.92 0 M14.58 0 C38.32 0.14, 62.67 0.16, 97.92 0 M97.92 0 C108.37 -1.21, 111.13 5.42, 112.5 14.58 M97.92 0 C109.72 -1.62, 111.36 3.41, 112.5 14.58 M112.5 14.58 C112.82 20.84, 113.62 27.53, 112.5 43.75 M112.5 14.58 C112.37 23.59, 111.72 32.23, 112.5 43.75 M112.5 43.75 C112.63 53.3, 107.44 58.15, 97.92 58.33 M112.5 43.75 C111.18 54.47, 105.82 59.84, 97.92 58.33 M97.92 58.33 C78.51 57.1, 55.86 59.78, 14.58 58.33 M97.92 58.33 C66.94 58.19, 36.97 58.77, 14.58 58.33 M14.58 58.33 C4.79 60, -1.42 51.57, 0 43.75 M14.58 58.33 C3.24 59.26, 1.64 53.03, 0 43.75 M0 43.75 C-1.91 32.04, -0.78 21.62, 0 14.58 M0 43.75 C0.2 34.89, -0.82 24.87, 0 14.58 M0 14.58 C0.37 5.13, 5.28 -1.76, 14.58 0 M0 14.58 C1.15 4.62, 6.98 -0.77, 14.58 0" stroke="#1e1e1e" stroke-width="2" fill="none"></path></g><g transform="translate(58.8900146484375 983.7499999999997) rotate(0 19.8599853515625 12.5)"><text x="19.8599853515625" y="0" font-family="Virgil, Segoe UI Emoji" font-size="20px" fill="#1e1e1e" text-anchor="middle" style="white-space: pre;" direction="ltr" dominant-baseline="text-before-edge">main</text></g><g stroke-linecap="round" transform="translate(260 1277.4999999999995) rotate(0 50 33.33333333333337)"><path d="M16.67 0 C33.64 -0.71, 51.37 0.57, 83.33 0 C92.06 -2.4, 102.69 2.97, 100 16.67 C99.15 20, 100 27.86, 100 50 C96.7 61.71, 95.89 63.57, 83.33 66.67 C60.6 62.64, 43.72 63.47, 16.67 66.67 C7.29 69.49, -0.29 58.38, 0 50 C-1.85 44.88, 1.18 32.67, 0 16.67 C3.25 3.99, 5.16 -1.15, 16.67 0" stroke="none" stroke-width="0" fill="#ffffff"></path><path d="M16.67 0 C32.11 0.29, 45.25 0.88, 83.33 0 M16.67 0 C35.7 0.22, 55.61 -0.18, 83.33 0 M83.33 0 C92.52 0.11, 99.21 6.93, 100 16.67 M83.33 0 C92.56 0.62, 102.06 5.19, 100 16.67 M100 16.67 C100.27 24.01, 98.34 34.39, 100 50 M100 16.67 C99.44 25.06, 99.35 33.35, 100 50 M100 50 C101.88 60.6, 96.14 66.49, 83.33 66.67 M100 50 C99.49 59.78, 95.34 65.98, 83.33 66.67 M83.33 66.67 C63.92 66.3, 42.8 67.13, 16.67 66.67 M83.33 66.67 C60.67 66.33, 35.85 67.38, 16.67 66.67 M16.67 66.67 C6.5 66.62, -0.46 61.75, 0 50 M16.67 66.67 C5.14 65.13, -0.49 59.61, 0 50 M0 50 C-0.96 42.59, -0.46 32.4, 0 16.67 M0 50 C-0.04 41.87, -0.11 33.16, 0 16.67 M0 16.67 C1.22 5.94, 6.65 -0.57, 16.67 0 M0 16.67 C0.79 7.81, 4.72 1.81, 16.67 0" stroke="#1e1e1e" stroke-width="2" fill="none"></path></g><g stroke-linecap="round" transform="translate(10 1994.1666666666658) rotate(0 75 28.124999999999773)"><path d="M14.06 0 C49.01 0.98, 80.12 2.24, 135.94 0 C144.17 -1.36, 149.82 7.3, 150 14.06 C150.35 22.59, 153.67 25.27, 150 42.19 C149.09 52.87, 142.18 57.06, 135.94 56.25 C104.39 55.92, 70.35 59.95, 14.06 56.25 C5.38 53.52, 2.49 51.67, 0 42.19 C-3.28 36.07, 1.66 27.95, 0 14.06 C1.87 3.84, 7.21 2.28, 14.06 0" stroke="none" stroke-width="0" fill="#ffffff"></path><path d="M14.06 0 C40.5 2.73, 71 0.09, 135.94 0 M14.06 0 C38.4 0.9, 64.97 -0.13, 135.94 0 M135.94 0 C145.77 1.02, 148.12 4.01, 150 14.06 M135.94 0 C143.46 2.17, 148.68 5.79, 150 14.06 M150 14.06 C148.44 23.58, 150.95 34.13, 150 42.19 M150 14.06 C150.97 23.87, 149.96 34.23, 150 42.19 M150 42.19 C149.88 51.47, 144.86 57.19, 135.94 56.25 M150 42.19 C151.86 51.27, 147.34 54.34, 135.94 56.25 M135.94 56.25 C89.5 57.24, 37.7 59.26, 14.06 56.25 M135.94 56.25 C106.47 56.23, 78.29 56.34, 14.06 56.25 M14.06 56.25 C2.74 56.97, -1.59 52.24, 0 42.19 M14.06 56.25 C6.32 57.14, -1.44 53.69, 0 42.19 M0 42.19 C1.08 32.78, -1.54 26.64, 0 14.06 M0 42.19 C0.39 33.09, 0.54 25.3, 0 14.06 M0 14.06 C0.44 4, 6.27 0.11, 14.06 0 M0 14.06 C1.58 6.9, 4.03 -0.59, 14.06 0" stroke="#1e1e1e" stroke-width="2" fill="none"></path></g><g transform="translate(51.03003692626953 2009.7916666666656) rotate(0 33.96996307373047 12.5)"><text x="33.96996307373047" y="0" font-family="Virgil, Segoe UI Emoji" font-size="20px" fill="#1e1e1e" text-anchor="middle" style="white-space: pre;" direction="ltr" dominant-baseline="text-before-edge">section</text></g><g transform="translate(138.1249999999991 669.1666666666667) rotate(0 33.96996307373047 12.5)"><text x="0" y="0" font-family="Virgil, Segoe UI Emoji" font-size="20px" fill="#1e1e1e" text-anchor="start" style="white-space: pre;" direction="ltr" dominant-baseline="text-before-edge">section</text></g><g transform="translate(294.3749999999991 1306.6666666666665) rotate(0 28.429969787597656 12.5)"><text x="0" y="0" font-family="Virgil, Segoe UI Emoji" font-size="20px" fill="#1e1e1e" text-anchor="start" style="white-space: pre;" direction="ltr" dominant-baseline="text-before-edge">sectin</text></g><g stroke-linecap="round"><g transform="translate(548.5416666666656 360.83333333333405) rotate(0 -76.04166666666663 25)"><path d="M-0.33 0.86 C-25.48 8.98, -126.42 41.43, -151.66 49.54 M1.69 0.26 C-23.5 8.49, -126.7 42.45, -152.39 50.83" stroke="#1e1e1e" stroke-width="2" fill="none"></path></g><g transform="translate(548.5416666666656 360.83333333333405) rotate(0 -76.04166666666663 25)"><path d="M-132.73 35.39 C-135.76 39.61, -142.51 42.95, -152.39 50.83 M-132.73 35.39 C-138.11 40.46, -142.4 43.13, -152.39 50.83" stroke="#1e1e1e" stroke-width="2" fill="none"></path></g><g transform="translate(548.5416666666656 360.83333333333405) rotate(0 -76.04166666666663 25)"><path d="M-127.4 51.64 C-131.77 52.08, -139.75 51.66, -152.39 50.83 M-127.4 51.64 C-134.06 52.57, -139.72 51.05, -152.39 50.83" stroke="#1e1e1e" stroke-width="2" fill="none"></path></g></g><mask></mask><g stroke-linecap="round" transform="translate(311.04166666666566 410.83333333333405) rotate(0 42.70833333333334 22.916666666666686)"><path d="M11.46 0 C21.71 -2.81, 36.83 1.15, 73.96 0 C83.74 3.11, 88.21 0.36, 85.42 11.46 C82.64 19.56, 88.14 24.35, 85.42 34.38 C84.35 42.3, 84.15 43.76, 73.96 45.83 C58.74 47.4, 38.14 47.86, 11.46 45.83 C0.47 47.45, 1.17 38.71, 0 34.38 C-1.61 32.4, -1.62 26.18, 0 11.46 C3.4 5.34, 1.15 2.66, 11.46 0" stroke="none" stroke-width="0" fill="#ffffff"></path><path d="M11.46 0 C31.62 0.03, 47.48 -0.25, 73.96 0 M11.46 0 C33.67 1.08, 57.18 1.01, 73.96 0 M73.96 0 C81.68 -1.77, 85.76 2.24, 85.42 11.46 M73.96 0 C79.67 0.52, 84.59 1.99, 85.42 11.46 M85.42 11.46 C84.31 17.84, 83.9 22.88, 85.42 34.38 M85.42 11.46 C86.07 18.69, 85.04 27.82, 85.42 34.38 M85.42 34.38 C84.96 43.17, 83.33 44.24, 73.96 45.83 M85.42 34.38 C86.17 41.49, 80.43 46.89, 73.96 45.83 M73.96 45.83 C52.9 47.85, 34.12 46.64, 11.46 45.83 M73.96 45.83 C53.87 45.7, 31.45 47.35, 11.46 45.83 M11.46 45.83 C5.18 44.68, 1.67 42.85, 0 34.38 M11.46 45.83 C2.06 47.3, 1 40.51, 0 34.38 M0 34.38 C-0.55 26.36, 0.6 21.15, 0 11.46 M0 34.38 C-0.84 27.91, -0.12 22.77, 0 11.46 M0 11.46 C-1.47 5, 5.32 -0.31, 11.46 0 M0 11.46 C-1.03 5, 6.09 -0.19, 11.46 0" stroke="#1e1e1e" stroke-width="2" fill="none"></path></g><g transform="translate(340.6400146484365 421.25000000000074) rotate(0 13.1099853515625 12.5)"><text x="13.1099853515625" y="0" font-family="Virgil, Segoe UI Emoji" font-size="20px" fill="#1e1e1e" text-anchor="middle" style="white-space: pre;" direction="ltr" dominant-baseline="text-before-edge">div</text></g><g stroke-linecap="round"><g transform="translate(800.6249999999989 1173.333333333334) rotate(0 -235.41666666666663 -16.666666666666742)"><path d="M-0.48 0 C-79.08 -5.51, -393.3 -26.83, -471.87 -32.49 M1.47 -1.05 C-76.75 -6.94, -391.2 -28.84, -469.71 -34.16" stroke="#1e1e1e" stroke-width="2" fill="none"></path></g><g transform="translate(800.6249999999989 1173.333333333334) rotate(0 -235.41666666666663 -16.666666666666742)"><path d="M-445.68 -41.08 C-452.28 -41, -457.49 -39.16, -469.71 -34.16 M-445.68 -41.08 C-452.22 -38.82, -458.13 -37.05, -469.71 -34.16" stroke="#1e1e1e" stroke-width="2" fill="none"></path></g><g transform="translate(800.6249999999989 1173.333333333334) rotate(0 -235.41666666666663 -16.666666666666742)"><path d="M-446.86 -24.02 C-453.21 -28.64, -458.1 -31.5, -469.71 -34.16 M-446.86 -24.02 C-453.16 -25.99, -458.78 -28.44, -469.71 -34.16" stroke="#1e1e1e" stroke-width="2" fill="none"></path></g></g><mask></mask><g stroke-linecap="round" transform="translate(252.7083333333323 1144.1666666666672) rotate(0 40.62500000000003 21.875)"><path d="M10.94 0 C23.91 -3.13, 35.21 -3.13, 70.31 0 C76.05 2.22, 78.52 6.34, 81.25 10.94 C81.84 16.46, 77.99 18.03, 81.25 32.81 C82.82 43.2, 78.81 41.8, 70.31 43.75 C55.62 40.22, 45.44 46.58, 10.94 43.75 C5.61 46.22, -2.74 40.87, 0 32.81 C2.82 28.89, -0.1 23.18, 0 10.94 C-1.16 2.87, 2.27 -2.37, 10.94 0" stroke="none" stroke-width="0" fill="#ffffff"></path><path d="M10.94 0 C28.85 -1.44, 44.07 -1.09, 70.31 0 M10.94 0 C33.6 0.2, 56.04 -0.02, 70.31 0 M70.31 0 C75.65 -0.65, 79.3 2.28, 81.25 10.94 M70.31 0 C79.75 -0.9, 80.07 5.18, 81.25 10.94 M81.25 10.94 C82.8 15.57, 79.88 20.48, 81.25 32.81 M81.25 10.94 C80.93 17.65, 81.54 25.07, 81.25 32.81 M81.25 32.81 C82.82 38.68, 78.07 45.37, 70.31 43.75 M81.25 32.81 C82.73 39.03, 78.34 43.35, 70.31 43.75 M70.31 43.75 C48.57 43.39, 25.73 44.35, 10.94 43.75 M70.31 43.75 C57.71 43.37, 45.75 44.14, 10.94 43.75 M10.94 43.75 C3.49 45.28, -0.12 41.48, 0 32.81 M10.94 43.75 C3.53 46.02, 0.82 40.71, 0 32.81 M0 32.81 C-1.29 29.03, -0.61 23.22, 0 10.94 M0 32.81 C0.49 25.23, 0.09 17.38, 0 10.94 M0 10.94 C-1.09 1.87, 2.04 0.25, 10.94 0 M0 10.94 C1.79 3.59, 4.25 1.04, 10.94 0" stroke="#1e1e1e" stroke-width="2" fill="none"></path></g><g transform="translate(280.22334798176985 1153.5416666666672) rotate(0 13.1099853515625 12.5)"><text x="13.1099853515625" y="0" font-family="Virgil, Segoe UI Emoji" font-size="20px" fill="#1e1e1e" text-anchor="middle" style="white-space: pre;" direction="ltr" dominant-baseline="text-before-edge">div</text></g><g stroke-linecap="round" transform="translate(725.6249999999989 2494.166666666667) rotate(0 223.95833333333326 57.29166666666674)"><path d="M28.65 0 C163.05 -1.29, 299.43 0.63, 419.27 0 C436.76 -1.56, 445.83 11.51, 447.92 28.65 C444.41 42.74, 444.2 52.92, 447.92 85.94 C449.18 102.45, 439.28 114.75, 419.27 114.58 C335.86 117.6, 248.47 116.64, 28.65 114.58 C12.59 111.43, 0.9 102.25, 0 85.94 C0.69 71.26, -3.21 51.63, 0 28.65 C-1.62 13.04, 10.64 -1.59, 28.65 0" stroke="none" stroke-width="0" fill="#ffffff"></path><path d="M28.65 0 C142.7 -0.53, 257.82 -0.89, 419.27 0 M28.65 0 C169.33 -1.92, 310.61 -1.58, 419.27 0 M419.27 0 C438.91 -1.73, 446.81 10.42, 447.92 28.65 M419.27 0 C440.35 0.77, 446.67 7.31, 447.92 28.65 M447.92 28.65 C445.97 43.67, 449.5 60.66, 447.92 85.94 M447.92 28.65 C447.12 50.75, 447.83 71.79, 447.92 85.94 M447.92 85.94 C448.95 105.19, 439.44 113.94, 419.27 114.58 M447.92 85.94 C447.42 104.16, 436.85 113.18, 419.27 114.58 M419.27 114.58 C313.95 112.38, 209.45 113.1, 28.65 114.58 M419.27 114.58 C325.77 115.94, 231.72 114.98, 28.65 114.58 M28.65 114.58 C11.29 113.8, 0.46 104.67, 0 85.94 M28.65 114.58 C7.41 114.57, 1.28 106.1, 0 85.94 M0 85.94 C-0.16 69.21, 1.07 50.97, 0 28.65 M0 85.94 C0.06 74.57, 0.45 61.68, 0 28.65 M0 28.65 C0.99 8.92, 11.04 1.62, 28.65 0 M0 28.65 C1.43 7.88, 10.4 1.72, 28.65 0" stroke="#1e1e1e" stroke-width="2" fill="none"></path></g><g stroke-linecap="round" transform="translate(956.8749999999989 2525.416666666667) rotate(0 77.08333333333326 25)"><path d="M12.5 0 C45.93 3.99, 80.56 2.46, 141.67 0 C149.93 -0.2, 152.06 5.81, 154.17 12.5 C156.84 22.67, 153.96 28.15, 154.17 37.5 C152.06 45.82, 153.23 47.75, 141.67 50 C91.34 51.13, 42.37 52.66, 12.5 50 C4.45 48.64, 2.03 47.98, 0 37.5 C-1.96 28.46, 1.96 18.29, 0 12.5 C2.42 5.61, 7.43 -2.38, 12.5 0" stroke="none" stroke-width="0" fill="#ffffff"></path><path d="M12.5 0 C56.84 -0.06, 103.09 1.45, 141.67 0 M12.5 0 C46.04 1.63, 78.16 1.16, 141.67 0 M141.67 0 C151.69 -0.7, 154.25 5.88, 154.17 12.5 M141.67 0 C148.71 0.41, 153.43 2.03, 154.17 12.5 M154.17 12.5 C154.39 19.86, 154.96 31.18, 154.17 37.5 M154.17 12.5 C154.73 23.14, 153.59 32.9, 154.17 37.5 M154.17 37.5 C152.92 46.32, 150.68 48.56, 141.67 50 M154.17 37.5 C152.19 43.93, 149.42 51.15, 141.67 50 M141.67 50 C115.46 49.8, 88.04 49.39, 12.5 50 M141.67 50 C96.23 49.94, 48.7 50.02, 12.5 50 M12.5 50 C3.88 51.22, -0.9 46.9, 0 37.5 M12.5 50 C1.96 49.74, -0.97 45.57, 0 37.5 M0 37.5 C0.69 28.31, -1.45 21.39, 0 12.5 M0 37.5 C0.65 29, 0.26 21.6, 0 12.5 M0 12.5 C-1.96 3.25, 2.46 1.45, 12.5 0 M0 12.5 C-0.01 3.21, 2.03 1.17, 12.5 0" stroke="#1e1e1e" stroke-width="2" fill="none"></path></g><g transform="translate(1027.2883351643868 2537.916666666667) rotate(0 6.6699981689453125 12.5)"><text x="6.6699981689453125" y="0" font-family="Virgil, Segoe UI Emoji" font-size="20px" fill="#1e1e1e" text-anchor="middle" style="white-space: pre;" direction="ltr" dominant-baseline="text-before-edge">a</text></g><g transform="translate(811.0416666666655 2552.5000000000005) rotate(0 4.92999267578125 12.5)"><text x="0" y="0" font-family="Virgil, Segoe UI Emoji" font-size="20px" fill="#1e1e1e" text-anchor="start" style="white-space: pre;" direction="ltr" dominant-baseline="text-before-edge">p</text></g><g stroke-linecap="round"><g transform="translate(725.6249999999989 2546.2500000000005) rotate(0 -153.12499999999994 40.625)"><path d="M0.24 1.02 C-51.12 14.49, -256.17 67.18, -307.42 80.7 M-1.1 0.5 C-52.17 14.15, -254.69 68.66, -305.33 81.94" stroke="#1e1e1e" stroke-width="2" fill="none"></path></g><g transform="translate(725.6249999999989 2546.2500000000005) rotate(0 -153.12499999999994 40.625)"><path d="M-284.83 67.64 C-290.51 70.86, -300.49 76.24, -305.33 81.94 M-284.83 67.64 C-293.39 73.39, -300.43 79.05, -305.33 81.94" stroke="#1e1e1e" stroke-width="2" fill="none"></path></g><g transform="translate(725.6249999999989 2546.2500000000005) rotate(0 -153.12499999999994 40.625)"><path d="M-280.43 84.16 C-287.67 81.46, -299.23 80.91, -305.33 81.94 M-280.43 84.16 C-290.63 83.74, -299.3 83.25, -305.33 81.94" stroke="#1e1e1e" stroke-width="2" fill="none"></path></g></g><mask></mask><g stroke-linecap="round" transform="translate(352.70833333333223 2631.666666666667) rotate(0 34.375 43.75)"><path d="M17.19 0 C22.1 0.07, 30.4 0.34, 51.56 0 C62.21 -2.41, 71.48 9.02, 68.75 17.19 C66.41 31.86, 69.34 49.75, 68.75 70.31 C69.36 80.93, 64.51 84.48, 51.56 87.5 C39.18 88.78, 31.68 86.81, 17.19 87.5 C5.6 84.17, -2.71 84.14, 0 70.31 C2.88 46.61, -0.15 32.6, 0 17.19 C-2.22 2.58, 2.39 -2.31, 17.19 0" stroke="none" stroke-width="0" fill="#ffffff"></path><path d="M17.19 0 C30.25 -0.52, 42.25 1.6, 51.56 0 M17.19 0 C25.17 1.04, 33.01 0.67, 51.56 0 M51.56 0 C64.69 -0.61, 68.33 6.26, 68.75 17.19 M51.56 0 C64.45 1.02, 69.28 4.61, 68.75 17.19 M68.75 17.19 C68.75 30.5, 68.6 45.78, 68.75 70.31 M68.75 17.19 C68.22 34.07, 67.43 50.55, 68.75 70.31 M68.75 70.31 C66.81 83.24, 63.66 85.6, 51.56 87.5 M68.75 70.31 C68.86 79.75, 63.53 86.24, 51.56 87.5 M51.56 87.5 C40.69 85.86, 32.99 89.01, 17.19 87.5 M51.56 87.5 C40.68 86.75, 30.99 88.05, 17.19 87.5 M17.19 87.5 C6.24 86.93, 1.75 82.02, 0 70.31 M17.19 87.5 C6.46 89.14, -1.77 82.19, 0 70.31 M0 70.31 C-1.9 52.38, -0.11 32.31, 0 17.19 M0 70.31 C1.1 50.28, 1.05 27.66, 0 17.19 M0 17.19 C1.22 5.33, 7.46 0.06, 17.19 0 M0 17.19 C0.02 7.59, 5.4 2.29, 17.19 0" stroke="#1e1e1e" stroke-width="2" fill="none"></path></g><g transform="translate(373.97334798176973 2662.916666666667) rotate(0 13.1099853515625 12.5)"><text x="13.1099853515625" y="0" font-family="Virgil, Segoe UI Emoji" font-size="20px" fill="#1e1e1e" text-anchor="middle" style="white-space: pre;" direction="ltr" dominant-baseline="text-before-edge">div</text></g><g stroke-linecap="round"><g transform="translate(540.2083333333322 2527.5000000000005) rotate(0 -198.9583333333333 42.70833333333326)"><path d="M-0.88 0.14 C-67.3 14.3, -332.33 71.57, -398.55 85.65 M0.85 -0.83 C-65.16 12.88, -329.51 69.26, -396.17 83.65" stroke="#1e1e1e" stroke-width="2" fill="none"></path></g><g transform="translate(540.2083333333322 2527.5000000000005) rotate(0 -198.9583333333333 42.70833333333326)"><path d="M-374.99 70.37 C-380.92 73.08, -387.02 77.61, -396.17 83.65 M-374.99 70.37 C-379.72 74.66, -385.43 75.84, -396.17 83.65" stroke="#1e1e1e" stroke-width="2" fill="none"></path></g><g transform="translate(540.2083333333322 2527.5000000000005) rotate(0 -198.9583333333333 42.70833333333326)"><path d="M-371.41 87.09 C-378.49 84.84, -385.65 84.43, -396.17 83.65 M-371.41 87.09 C-377.1 87.52, -383.64 84.8, -396.17 83.65" stroke="#1e1e1e" stroke-width="2" fill="none"></path></g></g><mask></mask><g stroke-linecap="round" transform="translate(13.124999999998977 2617.083333333334) rotate(0 61.45833333333334 41.666666666666515)"><path d="M20.83 0 C40.01 -2.04, 59.89 1.1, 102.08 0 C112.86 0.79, 121.88 4.21, 122.92 20.83 C122.87 33.32, 124.74 48.97, 122.92 62.5 C124.7 78.23, 114.7 83.35, 102.08 83.33 C81.14 85.88, 65.49 80.3, 20.83 83.33 C7.74 81.18, 2.46 75.95, 0 62.5 C1.24 54.87, -1.53 39.24, 0 20.83 C0.49 6.25, 5.96 2.78, 20.83 0" stroke="none" stroke-width="0" fill="#ffffff"></path><path d="M20.83 0 C42.59 1.91, 68.43 0.56, 102.08 0 M20.83 0 C41.44 0.69, 61.83 0.49, 102.08 0 M102.08 0 C116.48 -1.09, 121.61 6.02, 122.92 20.83 M102.08 0 C116 0.56, 124.52 8.45, 122.92 20.83 M122.92 20.83 C124.38 36.96, 125.25 53.04, 122.92 62.5 M122.92 20.83 C122.19 30.69, 122.4 40.41, 122.92 62.5 M122.92 62.5 C121.11 77.74, 115.58 83.17, 102.08 83.33 M122.92 62.5 C123.47 76.65, 118.04 82.49, 102.08 83.33 M102.08 83.33 C77.42 84.46, 54.54 84.7, 20.83 83.33 M102.08 83.33 C83.1 82.88, 62.05 82.91, 20.83 83.33 M20.83 83.33 C5.98 83.13, -0.09 76.63, 0 62.5 M20.83 83.33 C7.9 84.71, 2.21 76.29, 0 62.5 M0 62.5 C-1.29 45.16, -0.8 29.36, 0 20.83 M0 62.5 C0.29 52.05, -0.04 41.83, 0 20.83 M0 20.83 C-1.84 7.64, 7.15 0.64, 20.83 0 M0 20.83 C-1.3 8.05, 5.2 -0.76, 20.83 0" stroke="#1e1e1e" stroke-width="2" fill="none"></path></g><g transform="translate(43.22337086995341 2646.2500000000005) rotate(0 31.35996246337892 12.5)"><text x="31.359962463378906" y="0" font-family="Virgil, Segoe UI Emoji" font-size="20px" fill="#1e1e1e" text-anchor="middle" style="white-space: pre;" direction="ltr" dominant-baseline="text-before-edge">footer</text></g></svg>